<?xml version="1.0" encoding="UTF-8" standalone="no"?>
<svg
   xmlns:osb="http://www.openswatchbook.org/uri/2009/osb"
   xmlns:dc="http://purl.org/dc/elements/1.1/"
   xmlns:cc="http://creativecommons.org/ns#"
   xmlns:rdf="http://www.w3.org/1999/02/22-rdf-syntax-ns#"
   xmlns:svg="http://www.w3.org/2000/svg"
   xmlns="http://www.w3.org/2000/svg"
   xmlns:sodipodi="http://sodipodi.sourceforge.net/DTD/sodipodi-0.dtd"
   xmlns:inkscape="http://www.inkscape.org/namespaces/inkscape"
   width="160.95284mm"
   height="166.95117mm"
   viewBox="0 0 160.95284 166.95117"
   version="1.1"
   id="svg36"
   inkscape:version="1.0.2-2 (e86c870879, 2021-01-15)"
   sodipodi:docname="TV06RW-13-35P.svg">
  <defs
     id="defs30">
    <linearGradient
       id="linearGradient867"
       osb:paint="solid">
      <stop
         style="stop-color:#ff0000;stop-opacity:1;"
         offset="0"
         id="stop865" />
    </linearGradient>
  </defs>
  <sodipodi:namedview
     id="base"
     pagecolor="#ffffff"
     bordercolor="#666666"
     borderopacity="1.0"
     inkscape:pageopacity="0.0"
     inkscape:pageshadow="2"
     inkscape:zoom="1"
     inkscape:cx="526.29206"
     inkscape:cy="313.42269"
     inkscape:document-units="mm"
     inkscape:current-layer="layer1"
     inkscape:document-rotation="0"
     showgrid="false"
     inkscape:window-width="1920"
     inkscape:window-height="1027"
     inkscape:window-x="1352"
     inkscape:window-y="-8"
     inkscape:window-maximized="1" />
  <metadata
     id="metadata33">
    <rdf:RDF>
      <cc:Work
         rdf:about="">
        <dc:format>image/svg+xml</dc:format>
        <dc:type
           rdf:resource="http://purl.org/dc/dcmitype/StillImage" />
        <dc:title></dc:title>
      </cc:Work>
    </rdf:RDF>
  </metadata>
  <g
     inkscape:label="Layer 1"
     inkscape:groupmode="layer"
     id="layer1"
     transform="translate(-24.379468,-62.366072)">
    <g
       id="port-1"
       transform="matrix(0.61026482,0,0,0.61026482,55.079188,-2.9338496)">
      <path
         id="path899-99"
         style="fill:none;stroke:#000000;stroke-width:0.865;stroke-linecap:butt;stroke-linejoin:miter;stroke-miterlimit:4;stroke-dasharray:none;stroke-opacity:1"
         d="M 115.01637,148.5 H 94.983631 M 105,138.20015 v 20.5997 M 112.27604,148.5 A 7.2760415,7.2760415 0 0 1 105,155.77604 7.2760415,7.2760415 0 0 1 97.723958,148.5 7.2760415,7.2760415 0 0 1 105,141.22396 7.2760415,7.2760415 0 0 1 112.27604,148.5 Z" />
    </g>
    <g
       id="port-2"
       transform="matrix(0.61026482,0,0,0.61026482,80.025616,9.2558825)">
      <path
         id="path899-52"
         style="fill:none;stroke:#000000;stroke-width:0.865;stroke-linecap:butt;stroke-linejoin:miter;stroke-miterlimit:4;stroke-dasharray:none;stroke-opacity:1"
         d="M 115.01637,148.5 H 94.983631 M 105,138.20015 v 20.5997 M 112.27604,148.5 A 7.2760415,7.2760415 0 0 1 105,155.77604 7.2760415,7.2760415 0 0 1 97.723958,148.5 7.2760415,7.2760415 0 0 1 105,141.22396 7.2760415,7.2760415 0 0 1 112.27604,148.5 Z" />
    </g>
    <g
       id="port-3"
       transform="matrix(0.61026482,0,0,0.61026482,94.294218,28.532669)">
      <path
         id="path899-56"
         style="fill:none;stroke:#000000;stroke-width:0.865;stroke-linecap:butt;stroke-linejoin:miter;stroke-miterlimit:4;stroke-dasharray:none;stroke-opacity:1"
         d="M 115.01637,148.5 H 94.983631 M 105,138.20015 v 20.5997 M 112.27604,148.5 A 7.2760415,7.2760415 0 0 1 105,155.77604 7.2760415,7.2760415 0 0 1 97.723958,148.5 7.2760415,7.2760415 0 0 1 105,141.22396 7.2760415,7.2760415 0 0 1 112.27604,148.5 Z" />
    </g>
    <g
       id="port-4"
       transform="matrix(0.61026482,0,0,0.61026482,103.93261,57.875674)">
      <path
         id="path899-7"
         style="fill:none;stroke:#000000;stroke-width:0.865;stroke-linecap:butt;stroke-linejoin:miter;stroke-miterlimit:4;stroke-dasharray:none;stroke-opacity:1"
         d="M 115.01637,148.5 H 94.983631 M 105,138.20015 v 20.5997 M 112.27604,148.5 A 7.2760415,7.2760415 0 0 1 105,155.77604 7.2760415,7.2760415 0 0 1 97.723958,148.5 7.2760415,7.2760415 0 0 1 105,141.22396 7.2760415,7.2760415 0 0 1 112.27604,148.5 Z" />
    </g>
    <g
       id="port-5"
       transform="matrix(0.61026482,0,0,0.61026482,94.294218,87.874931)">
      <path
         id="path899-5"
         style="fill:none;stroke:#000000;stroke-width:0.865;stroke-linecap:butt;stroke-linejoin:miter;stroke-miterlimit:4;stroke-dasharray:none;stroke-opacity:1"
         d="M 115.01637,148.5 H 94.983631 M 105,138.20015 v 20.5997 M 112.27604,148.5 A 7.2760415,7.2760415 0 0 1 105,155.77604 7.2760415,7.2760415 0 0 1 97.723958,148.5 7.2760415,7.2760415 0 0 1 105,141.22396 7.2760415,7.2760415 0 0 1 112.27604,148.5 Z" />
    </g>
    <g
       id="port-6"
       transform="matrix(0.61026482,0,0,0.61026482,80.025616,108.47463)">
      <path
         id="path899-2"
         style="fill:none;stroke:#000000;stroke-width:0.865;stroke-linecap:butt;stroke-linejoin:miter;stroke-miterlimit:4;stroke-dasharray:none;stroke-opacity:1"
         d="M 115.01637,148.5 H 94.983631 M 105,138.20015 v 20.5997 M 112.27604,148.5 A 7.2760415,7.2760415 0 0 1 105,155.77604 7.2760415,7.2760415 0 0 1 97.723958,148.5 7.2760415,7.2760415 0 0 1 105,141.22396 7.2760415,7.2760415 0 0 1 112.27604,148.5 Z" />
    </g>
    <g
       id="port-7"
       transform="matrix(0.61026482,0,0,0.61026482,55.079188,118.11302)">
      <path
         id="path899-9"
         style="fill:none;stroke:#000000;stroke-width:0.865;stroke-linecap:butt;stroke-linejoin:miter;stroke-miterlimit:4;stroke-dasharray:none;stroke-opacity:1"
         d="M 115.01637,148.5 H 94.983631 M 105,138.20015 v 20.5997 M 112.27604,148.5 A 7.2760415,7.2760415 0 0 1 105,155.77604 7.2760415,7.2760415 0 0 1 97.723958,148.5 7.2760415,7.2760415 0 0 1 105,141.22396 7.2760415,7.2760415 0 0 1 112.27604,148.5 Z" />
    </g>
    <g
       id="port-8"
       transform="matrix(0.61026482,0,0,0.61026482,27.959396,118.11302)">
      <path
         id="path899-22"
         style="fill:none;stroke:#000000;stroke-width:0.865;stroke-linecap:butt;stroke-linejoin:miter;stroke-miterlimit:4;stroke-dasharray:none;stroke-opacity:1"
         d="M 115.01637,148.5 H 94.983631 M 105,138.20015 v 20.5997 M 112.27604,148.5 A 7.2760415,7.2760415 0 0 1 105,155.77604 7.2760415,7.2760415 0 0 1 97.723958,148.5 7.2760415,7.2760415 0 0 1 105,141.22396 7.2760415,7.2760415 0 0 1 112.27604,148.5 Z" />
    </g>
    <g
       id="port-9"
       transform="matrix(0.61026482,0,0,0.61026482,3.1074615,108.47463)">
      <path
         id="path899-1"
         style="fill:none;stroke:#000000;stroke-width:0.865;stroke-linecap:butt;stroke-linejoin:miter;stroke-miterlimit:4;stroke-dasharray:none;stroke-opacity:1"
         d="M 115.01637,148.5 H 94.983631 M 105,138.20015 v 20.5997 M 112.27604,148.5 A 7.2760415,7.2760415 0 0 1 105,155.77604 7.2760415,7.2760415 0 0 1 97.723958,148.5 7.2760415,7.2760415 0 0 1 105,141.22396 7.2760415,7.2760415 0 0 1 112.27604,148.5 Z" />
    </g>
    <g
       id="port-10"
       transform="matrix(0.61026482,0,0,0.61026482,-12.295069,87.874931)">
      <path
         id="path899-20"
         style="fill:none;stroke:#000000;stroke-width:0.865;stroke-linecap:butt;stroke-linejoin:miter;stroke-miterlimit:4;stroke-dasharray:none;stroke-opacity:1"
         d="M 115.01637,148.5 H 94.983631 M 105,138.20015 v 20.5997 M 112.27604,148.5 A 7.2760415,7.2760415 0 0 1 105,155.77604 7.2760415,7.2760415 0 0 1 97.723958,148.5 7.2760415,7.2760415 0 0 1 105,141.22396 7.2760415,7.2760415 0 0 1 112.27604,148.5 Z" />
    </g>
    <g
       id="port-11"
       transform="matrix(0.61026482,0,0,0.61026482,-21.945824,57.875674)">
      <path
         id="path899"
         style="fill:none;stroke:#000000;stroke-width:0.865;stroke-linecap:butt;stroke-linejoin:miter;stroke-miterlimit:4;stroke-dasharray:none;stroke-opacity:1"
         d="M 115.01637,148.5 H 94.983631 M 105,138.20015 v 20.5997 M 112.27604,148.5 A 7.2760415,7.2760415 0 0 1 105,155.77604 7.2760415,7.2760415 0 0 1 97.723958,148.5 7.2760415,7.2760415 0 0 1 105,141.22396 7.2760415,7.2760415 0 0 1 112.27604,148.5 Z" />
    </g>
    <g
       id="port-12"
       transform="matrix(0.61026482,0,0,0.61026482,-12.295068,28.532668)">
      <path
         id="path899-3"
         style="fill:none;stroke:#000000;stroke-width:0.865;stroke-linecap:butt;stroke-linejoin:miter;stroke-miterlimit:4;stroke-dasharray:none;stroke-opacity:1"
         d="M 115.01637,148.5 H 94.983631 M 105,138.20015 v 20.5997 M 112.27604,148.5 A 7.2760415,7.2760415 0 0 1 105,155.77604 7.2760415,7.2760415 0 0 1 97.723958,148.5 7.2760415,7.2760415 0 0 1 105,141.22396 7.2760415,7.2760415 0 0 1 112.27604,148.5 Z" />
    </g>
    <g
       id="port-13"
       transform="matrix(0.61026482,0,0,0.61026482,3.1074615,9.2558825)">
      <path
         id="path899-6"
         style="fill:none;stroke:#000000;stroke-width:0.865;stroke-linecap:butt;stroke-linejoin:miter;stroke-miterlimit:4;stroke-dasharray:none;stroke-opacity:1"
         d="M 115.01637,148.5 H 94.983631 M 105,138.20015 v 20.5997 M 112.27604,148.5 A 7.2760415,7.2760415 0 0 1 105,155.77604 7.2760415,7.2760415 0 0 1 97.723958,148.5 7.2760415,7.2760415 0 0 1 105,141.22396 7.2760415,7.2760415 0 0 1 112.27604,148.5 Z" />
    </g>
    <g
       id="port-14"
       transform="matrix(0.61026482,0,0,0.61026482,27.959396,-2.9338496)">
      <path
         id="path899-30"
         style="fill:none;stroke:#000000;stroke-width:0.865;stroke-linecap:butt;stroke-linejoin:miter;stroke-miterlimit:4;stroke-dasharray:none;stroke-opacity:1"
         d="M 115.01637,148.5 H 94.983631 M 105,138.20015 v 20.5997 M 112.27604,148.5 A 7.2760415,7.2760415 0 0 1 105,155.77604 7.2760415,7.2760415 0 0 1 97.723958,148.5 7.2760415,7.2760415 0 0 1 105,141.22396 7.2760415,7.2760415 0 0 1 112.27604,148.5 Z" />
    </g>
    <g
       id="port-15"
       transform="matrix(0.61026482,0,0,0.61026482,55.079188,22.95752)">
      <path
         id="path899-13"
         style="fill:none;stroke:#000000;stroke-width:0.865;stroke-linecap:butt;stroke-linejoin:miter;stroke-miterlimit:4;stroke-dasharray:none;stroke-opacity:1"
         d="M 115.01637,148.5 H 94.983631 M 105,138.20015 v 20.5997 M 112.27604,148.5 A 7.2760415,7.2760415 0 0 1 105,155.77604 7.2760415,7.2760415 0 0 1 97.723958,148.5 7.2760415,7.2760415 0 0 1 105,141.22396 7.2760415,7.2760415 0 0 1 112.27604,148.5 Z" />
    </g>
    <g
       id="port-16"
       transform="matrix(0.61026482,0,0,0.61026482,76.718324,51.022252)">
      <path
         id="path899-77"
         style="fill:none;stroke:#000000;stroke-width:0.865;stroke-linecap:butt;stroke-linejoin:miter;stroke-miterlimit:4;stroke-dasharray:none;stroke-opacity:1"
         d="M 115.01637,148.5 H 94.983631 M 105,138.20015 v 20.5997 M 112.27604,148.5 A 7.2760415,7.2760415 0 0 1 105,155.77604 7.2760415,7.2760415 0 0 1 97.723958,148.5 7.2760415,7.2760415 0 0 1 105,141.22396 7.2760415,7.2760415 0 0 1 112.27604,148.5 Z" />
    </g>
    <g
       id="port-17"
       transform="matrix(0.61026482,0,0,0.61026482,68.780824,84.756628)">
      <path
         id="path899-50"
         style="fill:none;stroke:#000000;stroke-width:0.865;stroke-linecap:butt;stroke-linejoin:miter;stroke-miterlimit:4;stroke-dasharray:none;stroke-opacity:1"
         d="M 115.01637,148.5 H 94.983631 M 105,138.20015 v 20.5997 M 112.27604,148.5 A 7.2760415,7.2760415 0 0 1 105,155.77604 7.2760415,7.2760415 0 0 1 97.723958,148.5 7.2760415,7.2760415 0 0 1 105,141.22396 7.2760415,7.2760415 0 0 1 112.27604,148.5 Z" />
    </g>
    <g
       id="port-18"
       transform="matrix(0.61026482,0,0,0.61026482,40.922194,95.150972)">
      <path
         id="path899-58"
         style="fill:none;stroke:#000000;stroke-width:0.865;stroke-linecap:butt;stroke-linejoin:miter;stroke-miterlimit:4;stroke-dasharray:none;stroke-opacity:1"
         d="M 115.01637,148.5 H 94.983631 M 105,138.20015 v 20.5997 M 112.27604,148.5 A 7.2760415,7.2760415 0 0 1 105,155.77604 7.2760415,7.2760415 0 0 1 97.723958,148.5 7.2760415,7.2760415 0 0 1 105,141.22396 7.2760415,7.2760415 0 0 1 112.27604,148.5 Z" />
    </g>
    <g
       id="port-19"
       transform="matrix(0.61026482,0,0,0.61026482,14.163265,84.756628)">
      <path
         id="path899-225"
         style="fill:none;stroke:#000000;stroke-width:0.865;stroke-linecap:butt;stroke-linejoin:miter;stroke-miterlimit:4;stroke-dasharray:none;stroke-opacity:1"
         d="M 115.01637,148.5 H 94.983631 M 105,138.20015 v 20.5997 M 112.27604,148.5 A 7.2760415,7.2760415 0 0 1 105,155.77604 7.2760415,7.2760415 0 0 1 97.723958,148.5 7.2760415,7.2760415 0 0 1 105,141.22396 7.2760415,7.2760415 0 0 1 112.27604,148.5 Z" />
    </g>
    <g
       id="port-20"
       transform="matrix(0.61026482,0,0,0.61026482,5.4698124,51.022252)">
      <path
         id="path899-4"
         style="fill:none;stroke:#000000;stroke-width:0.865;stroke-linecap:butt;stroke-linejoin:miter;stroke-miterlimit:4;stroke-dasharray:none;stroke-opacity:1"
         d="M 115.01637,148.5 H 94.983631 M 105,138.20015 v 20.5997 M 112.27604,148.5 A 7.2760415,7.2760415 0 0 1 105,155.77604 7.2760415,7.2760415 0 0 1 97.723958,148.5 7.2760415,7.2760415 0 0 1 105,141.22396 7.2760415,7.2760415 0 0 1 112.27604,148.5 Z" />
    </g>
    <g
       id="port-21"
       transform="matrix(0.61026482,0,0,0.61026482,27.959396,22.95752)">
      <path
         id="path899-31"
         style="fill:none;stroke:#000000;stroke-width:0.865;stroke-linecap:butt;stroke-linejoin:miter;stroke-miterlimit:4;stroke-dasharray:none;stroke-opacity:1"
         d="M 115.01637,148.5 H 94.983631 M 105,138.20015 v 20.5997 M 112.27604,148.5 A 7.2760415,7.2760415 0 0 1 105,155.77604 7.2760415,7.2760415 0 0 1 97.723958,148.5 7.2760415,7.2760415 0 0 1 105,141.22396 7.2760415,7.2760415 0 0 1 112.27604,148.5 Z" />
    </g>
    <g
       id="port-22"
       transform="matrix(0.61026482,0,0,0.61026482,40.922194,66.235793)">
      <path
         id="path899-27"
         style="fill:none;stroke:#000000;stroke-width:0.865;stroke-linecap:butt;stroke-linejoin:miter;stroke-miterlimit:4;stroke-dasharray:none;stroke-opacity:1"
         d="M 115.01637,148.5 H 94.983631 M 105,138.20015 v 20.5997 M 112.27604,148.5 A 7.2760415,7.2760415 0 0 1 105,155.77604 7.2760415,7.2760415 0 0 1 97.723958,148.5 7.2760415,7.2760415 0 0 1 105,141.22396 7.2760415,7.2760415 0 0 1 112.27604,148.5 Z" />
    </g>
    <g
       id="g3031">
      <circle
         style="fill:none;fill-opacity:1;fill-rule:evenodd;stroke:#000000;stroke-width:1.33038;stroke-miterlimit:4;stroke-dasharray:none;stroke-opacity:1"
         id="path38"
         cx="105"
         cy="148.5"
         r="74.334808" />
      <circle
         style="fill:none;fill-opacity:1;stroke:#000000;stroke-width:0.813;stroke-miterlimit:4;stroke-dasharray:none;stroke-opacity:1"
         id="path871"
         cx="105"
         cy="148.5"
         r="49.143375" />
      <circle
         style="fill:none;fill-opacity:1;stroke:#000000;stroke-width:0.91;stroke-miterlimit:4;stroke-dasharray:none;stroke-opacity:1"
         id="path871-1"
         cx="105"
         cy="148.5"
         r="24.794903" />
      <g
         id="g1850">
        <path
           style="fill:none;stroke:#000000;stroke-width:1;stroke-linecap:butt;stroke-linejoin:miter;stroke-miterlimit:4;stroke-dasharray:none;stroke-opacity:1"
           d="m 105,148.5 h 54.42857"
           id="path1736" />
        <path
           style="fill:none;stroke:#000000;stroke-width:1;stroke-linecap:butt;stroke-linejoin:miter;stroke-miterlimit:4;stroke-dasharray:none;stroke-opacity:1"
           d="M 50.64881,148.5 H 105"
           id="path1736-0" />
        <path
           style="fill:none;stroke:#000000;stroke-width:1;stroke-linecap:butt;stroke-linejoin:miter;stroke-miterlimit:4;stroke-dasharray:none;stroke-opacity:1"
           d="m 179.28468,148.5 h 6.04762"
           id="path1736-7" />
        <path
           style="fill:none;stroke:#000000;stroke-width:1;stroke-linecap:butt;stroke-linejoin:miter;stroke-miterlimit:4;stroke-dasharray:none;stroke-opacity:1"
           d="m 24.379468,148.5 h 6.04762"
           id="path1736-7-3" />
        <path
           style="fill:none;stroke:#000000;stroke-width:1;stroke-linecap:butt;stroke-linejoin:miter;stroke-miterlimit:4;stroke-dasharray:none;stroke-opacity:1"
           d="M 105,62.366072 V 148.92262"
           id="path1798" />
        <path
           style="fill:none;stroke:#000000;stroke-width:1;stroke-linecap:butt;stroke-linejoin:miter;stroke-miterlimit:4;stroke-dasharray:none;stroke-opacity:1"
           d="m 105,167.25446 v 10.07887"
           id="path1800" />
        <path
           style="fill:none;stroke:#000000;stroke-width:1;stroke-linecap:butt;stroke-linejoin:miter;stroke-miterlimit:4;stroke-dasharray:none;stroke-opacity:1"
           d="m 105,195.41369 v 33.90356"
           id="path1802" />
        <path
           style="fill:#000000;fill-opacity:1;stroke:#000000;stroke-width:0.264583px;stroke-linecap:butt;stroke-linejoin:miter;stroke-opacity:1"
           d="m 98.21283,64.567446 h 13.60715 v 2.946251 h 6.80357 l -13.64343,6.764728 -13.605,-6.716185 6.83771,-0.04854 z"
           id="path1840"
           sodipodi:nodetypes="cccccccc" />
      </g>
      <path
         style="fill:#ffffff;fill-opacity:1;stroke:none;stroke-width:0.264583px;stroke-linecap:butt;stroke-linejoin:miter;stroke-opacity:1"
         d="m 96.146779,99.525414 1.004712,0.925126 7.346199,-0.671233 0.003,-0.851126 -3.34237,-0.03307 z"
         id="path3185"
         sodipodi:nodetypes="cccccc" />
      <path
         style="fill:#ffffff;fill-opacity:1;stroke:none;stroke-width:0.264583px;stroke-linecap:butt;stroke-linejoin:miter;stroke-opacity:1"
         d="m 105.50287,98.950676 -0.003,0.844824 9.43317,1.0013 -0.92504,-1.036953 -4.06011,-0.834848 z"
         id="path3187"
         sodipodi:nodetypes="cccccc" />
    </g>
    <text
       xml:space="preserve"
       style="font-style:normal;font-weight:normal;font-size:9.03532px;line-height:1.25;font-family:sans-serif;fill:#000000;fill-opacity:1;stroke:none;stroke-width:0.225883"
       x="109.89882"
       y="83.083847"
       id="text1854"><tspan
         sodipodi:role="line"
         id="tspan1852"
         x="109.89882"
         y="83.083847"
         style="stroke-width:0.225883">1</tspan></text>
    <text
       xml:space="preserve"
       style="font-style:normal;font-weight:normal;font-size:8.39345px;line-height:1.25;font-family:sans-serif;fill:#000000;fill-opacity:1;stroke:none;stroke-width:0.209837"
       x="93.275429"
       y="82.960648"
       id="text1854-8"><tspan
         sodipodi:role="line"
         id="tspan1852-2"
         x="93.275429"
         y="82.960648"
         style="stroke-width:0.209837">14</tspan></text>
    <text
       xml:space="preserve"
       style="font-style:normal;font-weight:normal;font-size:8.39345px;line-height:1.25;font-family:sans-serif;fill:#000000;fill-opacity:1;stroke:none;stroke-width:0.209837"
       x="78.699203"
       y="123.31461"
       id="text1854-8-5"><tspan
         sodipodi:role="line"
         id="tspan1852-2-6"
         x="78.699203"
         y="123.31461"
         style="stroke-width:0.209837">21</tspan></text>
    <text
       xml:space="preserve"
       style="font-style:normal;font-weight:normal;font-size:8.39345px;line-height:1.25;font-family:sans-serif;fill:#000000;fill-opacity:1;stroke:none;stroke-width:0.209837"
       x="121.95858"
       y="123.4469"
       id="text1854-8-3"><tspan
         sodipodi:role="line"
         id="tspan1852-2-5"
         x="121.95858"
         y="123.4469"
         style="stroke-width:0.209837">15</tspan></text>
    <text
       xml:space="preserve"
       style="font-style:normal;font-weight:normal;font-size:8.39345px;line-height:1.25;font-family:sans-serif;fill:#000000;fill-opacity:1;stroke:none;stroke-width:0.209837"
       x="111.63983"
       y="158.76877"
       id="text1854-8-55"><tspan
         sodipodi:role="line"
         id="tspan1852-2-2"
         x="111.63983"
         y="158.76877"
         style="stroke-width:0.209837">22</tspan></text>
    <path
       style="fill:none;stroke:#000000;stroke-width:0.976677;stroke-linecap:butt;stroke-linejoin:miter;stroke-miterlimit:4;stroke-dasharray:none;stroke-opacity:1"
       d="m 105.15931,89.357551 10.13036,11.077129"
       id="path3033" />
    <path
       style="fill:none;stroke:#000000;stroke-width:0.977696;stroke-linecap:butt;stroke-linejoin:miter;stroke-miterlimit:4;stroke-dasharray:none;stroke-opacity:1"
       d="m 96.196277,100.23396 8.814083,8.19805"
       id="path3037"
       sodipodi:nodetypes="cc" />
  </g>
</svg>
