<?xml version="1.0" encoding="UTF-8" standalone="no"?>
<svg
   xmlns:dc="http://purl.org/dc/elements/1.1/"
   xmlns:cc="http://creativecommons.org/ns#"
   xmlns:rdf="http://www.w3.org/1999/02/22-rdf-syntax-ns#"
   xmlns:svg="http://www.w3.org/2000/svg"
   xmlns="http://www.w3.org/2000/svg"
   version="1.1"
   id="svg3197"
   width="1251.6304"
   height="1241.7745"
   viewBox="0 0 1251.6304 1241.7745">
  <metadata
     id="metadata3203">
    <rdf:RDF>
      <cc:Work
         rdf:about="">
        <dc:format>image/svg+xml</dc:format>
        <dc:type
           rdf:resource="http://purl.org/dc/dcmitype/StillImage" />
        <dc:title></dc:title>
      </cc:Work>
    </rdf:RDF>
  </metadata>
  <defs
     id="defs3201" />
  <g
     id="g3205"
     transform="translate(-63.037713,-60.451896)">
    <path
       id="port-1"
       style="fill:none;stroke:#000000;stroke-width:3.77953;stroke-linecap:butt;stroke-linejoin:miter;stroke-miterlimit:4;stroke-dasharray:none;stroke-opacity:1"
       d="m 265.86762,564.72333 h -54.94747 m 27.47374,-27.47375 v 54.94741 m 21.00933,-27.47366 a 21.009331,21.009331 0 0 1 -21.00933,21.00935 21.009331,21.009331 0 0 1 -21.00933,-21.00935 21.009331,21.009331 0 0 1 21.00933,-21.00936 21.009331,21.009331 0 0 1 21.00933,21.00936 z" />
    <path
       id="port-2"
       style="fill:none;stroke:#000000;stroke-width:3.77953;stroke-linecap:butt;stroke-linejoin:miter;stroke-miterlimit:4;stroke-dasharray:none;stroke-opacity:1"
       d="m 263.5216,695.07383 h -54.94747 m 27.47374,-27.47375 v 54.94741 m 21.00933,-27.47366 a 21.009331,21.009331 0 0 1 -21.00933,21.00935 21.009331,21.009331 0 0 1 -21.00933,-21.00935 21.009331,21.009331 0 0 1 21.00933,-21.00936 21.009331,21.009331 0 0 1 21.00933,21.00936 z" />
    <path
       id="port-3"
       style="fill:none;stroke:#000000;stroke-width:3.77953;stroke-linecap:butt;stroke-linejoin:miter;stroke-miterlimit:4;stroke-dasharray:none;stroke-opacity:1"
       d="m 263.52161,825.42421 h -54.94747 m 27.47374,-27.47375 v 54.94741 m 21.00933,-27.47366 a 21.009331,21.009331 0 0 1 -21.00933,21.00935 21.009331,21.009331 0 0 1 -21.00933,-21.00935 21.009331,21.009331 0 0 1 21.00933,-21.00936 21.009331,21.009331 0 0 1 21.00933,21.00936 z" />
    <path
       id="port-4"
       style="fill:none;stroke:#000000;stroke-width:3.77953;stroke-linecap:butt;stroke-linejoin:miter;stroke-miterlimit:4;stroke-dasharray:none;stroke-opacity:1"
       d="m 370.30181,385.11544 h -54.94747 m 27.47374,-27.47375 v 54.94741 m 21.00933,-27.47366 a 21.009331,21.009331 0 0 1 -21.00933,21.00935 21.009331,21.009331 0 0 1 -21.00933,-21.00935 21.009331,21.009331 0 0 1 21.00933,-21.00936 21.009331,21.009331 0 0 1 21.00933,21.00936 z" />
    <path
       id="port-5"
       style="fill:none;stroke:#000000;stroke-width:3.77953;stroke-linecap:butt;stroke-linejoin:miter;stroke-miterlimit:4;stroke-dasharray:none;stroke-opacity:1"
       d="m 370.30181,507.4472 h -54.94747 m 27.47374,-27.47375 v 54.94741 m 21.00933,-27.47366 a 21.009331,21.009331 0 0 1 -21.00933,21.00935 21.009331,21.009331 0 0 1 -21.00933,-21.00935 21.009331,21.009331 0 0 1 21.00933,-21.00936 21.009331,21.009331 0 0 1 21.00933,21.00936 z" />
    <path
       id="port-6"
       style="fill:none;stroke:#000000;stroke-width:3.77953;stroke-linecap:butt;stroke-linejoin:miter;stroke-miterlimit:4;stroke-dasharray:none;stroke-opacity:1"
       d="m 370.30181,629.77893 h -54.94747 m 27.47374,-27.47375 v 54.94741 m 21.00933,-27.47366 a 21.009331,21.009331 0 0 1 -21.00933,21.00935 21.009331,21.009331 0 0 1 -21.00933,-21.00935 21.009331,21.009331 0 0 1 21.00933,-21.00936 21.009331,21.009331 0 0 1 21.00933,21.00936 z" />
    <path
       id="port-7"
       style="fill:none;stroke:#000000;stroke-width:3.77953;stroke-linecap:butt;stroke-linejoin:miter;stroke-miterlimit:4;stroke-dasharray:none;stroke-opacity:1"
       d="m 370.30181,752.11065 h -54.94747 m 27.47374,-27.47375 v 54.94741 m 21.00933,-27.47366 a 21.009331,21.009331 0 0 1 -21.00933,21.00935 21.009331,21.009331 0 0 1 -21.00933,-21.00935 21.009331,21.009331 0 0 1 21.00933,-21.00936 21.009331,21.009331 0 0 1 21.00933,21.00936 z" />
    <path
       id="port-8"
       style="fill:none;stroke:#FF0000;stroke-width:3.77953;stroke-linecap:butt;stroke-linejoin:miter;stroke-miterlimit:4;stroke-dasharray:none;stroke-opacity:1"
       d="m 370.30181,874.44238 h -54.94747 m 27.47374,-27.47375 v 54.94741 m 21.00933,-27.47366 a 21.009331,21.009331 0 0 1 -21.00933,21.00935 21.009331,21.009331 0 0 1 -21.00933,-21.00935 21.009331,21.009331 0 0 1 21.00933,-21.00936 21.009331,21.009331 0 0 1 21.00933,21.00936 z" />
    <path
       id="port-9"
       style="fill:none;stroke:#000000;stroke-width:3.77953;stroke-linecap:butt;stroke-linejoin:miter;stroke-miterlimit:4;stroke-dasharray:none;stroke-opacity:1"
       d="m 370.30181,996.77409 h -54.94747 m 27.47374,-27.47374 v 54.94755 m 21.00933,-27.47381 a 21.009331,21.009331 0 0 1 -21.00933,21.00951 21.009331,21.009331 0 0 1 -21.00933,-21.00951 21.009331,21.009331 0 0 1 21.00933,-21.00935 21.009331,21.009331 0 0 1 21.00933,21.00935 z" />
    <path
       id="port-10"
       style="fill:none;stroke:#000000;stroke-width:3.77953;stroke-linecap:butt;stroke-linejoin:miter;stroke-miterlimit:4;stroke-dasharray:none;stroke-opacity:1"
       d="m 482.08136,294.23869 h -54.94747 m 27.47374,-27.47375 v 54.94741 m 21.00933,-27.47366 a 21.009331,21.009331 0 0 1 -21.00933,21.00935 21.009331,21.009331 0 0 1 -21.00933,-21.00935 21.009331,21.009331 0 0 1 21.00933,-21.00936 21.009331,21.009331 0 0 1 21.00933,21.00936 z" />
    <path
       id="port-11"
       style="fill:none;stroke:#000000;stroke-width:3.77953;stroke-linecap:butt;stroke-linejoin:miter;stroke-miterlimit:4;stroke-dasharray:none;stroke-opacity:1"
       d="m 484.26066,435.27026 h -54.94747 m 27.47374,-27.47375 v 54.94741 m 21.00933,-27.47366 a 21.009331,21.009331 0 0 1 -21.00933,21.00935 21.009331,21.009331 0 0 1 -21.00933,-21.00935 21.009331,21.009331 0 0 1 21.00933,-21.00936 21.009331,21.009331 0 0 1 21.00933,21.00936 z" />
    <path
       id="port-12"
       style="fill:none;stroke:#000000;stroke-width:3.77953;stroke-linecap:butt;stroke-linejoin:miter;stroke-miterlimit:4;stroke-dasharray:none;stroke-opacity:1"
       d="m 484.26065,565.62069 h -54.94747 m 27.47374,-27.47375 v 54.94741 m 21.00933,-27.47366 a 21.009331,21.009331 0 0 1 -21.00933,21.00935 21.009331,21.009331 0 0 1 -21.00933,-21.00935 21.009331,21.009331 0 0 1 21.00933,-21.00936 21.009331,21.009331 0 0 1 21.00933,21.00936 z" />
    <path
       id="port-13"
       style="fill:none;stroke:#000000;stroke-width:3.77953;stroke-linecap:butt;stroke-linejoin:miter;stroke-miterlimit:4;stroke-dasharray:none;stroke-opacity:1"
       d="m 481.91463,695.97119 h -54.94747 m 27.47374,-27.47375 v 54.94741 m 21.00933,-27.47366 a 21.009331,21.009331 0 0 1 -21.00933,21.00935 21.009331,21.009331 0 0 1 -21.00933,-21.00935 21.009331,21.009331 0 0 1 21.00933,-21.00936 21.009331,21.009331 0 0 1 21.00933,21.00936 z" />
    <path
       id="port-14"
       style="fill:none;stroke:#000000;stroke-width:3.77953;stroke-linecap:butt;stroke-linejoin:miter;stroke-miterlimit:4;stroke-dasharray:none;stroke-opacity:1"
       d="m 481.91464,826.32157 h -54.94747 m 27.47374,-27.47375 v 54.94741 m 21.00933,-27.47366 a 21.009331,21.009331 0 0 1 -21.00933,21.00935 21.009331,21.009331 0 0 1 -21.00933,-21.00935 21.009331,21.009331 0 0 1 21.00933,-21.00936 21.009331,21.009331 0 0 1 21.00933,21.00936 z" />
    <path
       id="port-15"
       style="fill:none;stroke:#000000;stroke-width:3.77953;stroke-linecap:butt;stroke-linejoin:miter;stroke-miterlimit:4;stroke-dasharray:none;stroke-opacity:1"
       d="m 481.91464,956.67196 h -54.94747 m 27.47374,-27.47375 v 54.94741 m 21.00933,-27.47366 a 21.009331,21.009331 0 0 1 -21.00933,21.00935 21.009331,21.009331 0 0 1 -21.00933,-21.00935 21.009331,21.009331 0 0 1 21.00933,-21.00936 21.009331,21.009331 0 0 1 21.00933,21.00936 z" />
    <path
       id="port-16"
       style="fill:none;stroke:#000000;stroke-width:3.77953;stroke-linecap:butt;stroke-linejoin:miter;stroke-miterlimit:4;stroke-dasharray:none;stroke-opacity:1"
       d="m 481.75874,1087.0225 h -54.94747 m 27.47374,-27.4738 v 54.9474 m 21.00933,-27.4736 a 21.009331,21.009331 0 0 1 -21.00933,21.0093 21.009331,21.009331 0 0 1 -21.00933,-21.0093 21.009331,21.009331 0 0 1 21.00933,-21.0094 21.009331,21.009331 0 0 1 21.00933,21.0094 z" />
    <path
       id="port-17"
       style="fill:none;stroke:#000000;stroke-width:3.77953;stroke-linecap:butt;stroke-linejoin:miter;stroke-miterlimit:4;stroke-dasharray:none;stroke-opacity:1"
       d="M 598.13093,220.63205 H 543.18346 M 570.6572,193.1583 v 54.94741 m 21.00933,-27.47366 a 21.009331,21.009331 0 0 1 -21.00933,21.00935 21.009331,21.009331 0 0 1 -21.00933,-21.00935 21.009331,21.009331 0 0 1 21.00933,-21.00936 21.009331,21.009331 0 0 1 21.00933,21.00936 z" />
    <path
       id="port-18"
       style="fill:none;stroke:#000000;stroke-width:3.77953;stroke-linecap:butt;stroke-linejoin:miter;stroke-miterlimit:4;stroke-dasharray:none;stroke-opacity:1"
       d="m 598.13092,380.94994 h -54.94747 m 27.47374,-27.47375 v 54.94741 m 21.00933,-27.47366 a 21.009331,21.009331 0 0 1 -21.00933,21.00935 21.009331,21.009331 0 0 1 -21.00933,-21.00935 21.009331,21.009331 0 0 1 21.00933,-21.00936 21.009331,21.009331 0 0 1 21.00933,21.00936 z" />
    <path
       id="port-19"
       style="fill:none;stroke:#000000;stroke-width:3.77953;stroke-linecap:butt;stroke-linejoin:miter;stroke-miterlimit:4;stroke-dasharray:none;stroke-opacity:1"
       d="m 598.13092,503.2817 h -54.94747 m 27.47374,-27.47375 v 54.94741 m 21.00933,-27.47366 a 21.009331,21.009331 0 0 1 -21.00933,21.00935 21.009331,21.009331 0 0 1 -21.00933,-21.00935 21.009331,21.009331 0 0 1 21.00933,-21.00936 21.009331,21.009331 0 0 1 21.00933,21.00936 z" />
    <path
       id="port-20"
       style="fill:none;stroke:#000000;stroke-width:3.77953;stroke-linecap:butt;stroke-linejoin:miter;stroke-miterlimit:4;stroke-dasharray:none;stroke-opacity:1"
       d="m 598.13092,625.61343 h -54.94747 m 27.47374,-27.47375 v 54.94741 m 21.00933,-27.47366 a 21.009331,21.009331 0 0 1 -21.00933,21.00935 21.009331,21.009331 0 0 1 -21.00933,-21.00935 21.009331,21.009331 0 0 1 21.00933,-21.00936 21.009331,21.009331 0 0 1 21.00933,21.00936 z" />
    <path
       id="port-21"
       style="fill:none;stroke:#000000;stroke-width:3.77953;stroke-linecap:butt;stroke-linejoin:miter;stroke-miterlimit:4;stroke-dasharray:none;stroke-opacity:1"
       d="m 598.13092,747.94515 h -54.94747 m 27.47374,-27.47375 v 54.94741 m 21.00933,-27.47366 a 21.009331,21.009331 0 0 1 -21.00933,21.00935 21.009331,21.009331 0 0 1 -21.00933,-21.00935 21.009331,21.009331 0 0 1 21.00933,-21.00936 21.009331,21.009331 0 0 1 21.00933,21.00936 z" />
    <path
       id="port-22"
       style="fill:none;stroke:#000000;stroke-width:3.77953;stroke-linecap:butt;stroke-linejoin:miter;stroke-miterlimit:4;stroke-dasharray:none;stroke-opacity:1"
       d="m 598.13092,870.27688 h -54.94747 m 27.47374,-27.47375 v 54.94741 m 21.00933,-27.47366 a 21.009331,21.009331 0 0 1 -21.00933,21.00935 21.009331,21.009331 0 0 1 -21.00933,-21.00935 21.009331,21.009331 0 0 1 21.00933,-21.00936 21.009331,21.009331 0 0 1 21.00933,21.00936 z" />
    <path
       id="port-23"
       style="fill:none;stroke:#000000;stroke-width:3.77953;stroke-linecap:butt;stroke-linejoin:miter;stroke-miterlimit:4;stroke-dasharray:none;stroke-opacity:1"
       d="m 598.13092,992.60859 h -54.94747 m 27.47374,-27.47374 v 54.94755 m 21.00933,-27.47381 a 21.009331,21.009331 0 0 1 -21.00933,21.00951 21.009331,21.009331 0 0 1 -21.00933,-21.00951 21.009331,21.009331 0 0 1 21.00933,-21.00935 21.009331,21.009331 0 0 1 21.00933,21.00935 z" />
    <path
       id="port-24"
       style="fill:none;stroke:#000000;stroke-width:3.77953;stroke-linecap:butt;stroke-linejoin:miter;stroke-miterlimit:4;stroke-dasharray:none;stroke-opacity:1"
       d="m 594.81315,1147.95 h -54.94747 m 27.47374,-27.4738 v 54.9475 m 21.00933,-27.4737 a 21.009331,21.009331 0 0 1 -21.00933,21.0093 21.009331,21.009331 0 0 1 -21.00933,-21.0093 21.009331,21.009331 0 0 1 21.00933,-21.0094 21.009331,21.009331 0 0 1 21.00933,21.0094 z" />
    <path
       id="port-25"
       style="fill:none;stroke:#000000;stroke-width:3.77953;stroke-linecap:butt;stroke-linejoin:miter;stroke-miterlimit:4;stroke-dasharray:none;stroke-opacity:1"
       d="M 717.47373,185.59433 H 662.52626 M 690,158.12058 v 54.94741 m 21.00933,-27.47366 A 21.009331,21.009331 0 0 1 690,206.60368 21.009331,21.009331 0 0 1 668.99067,185.59433 21.009331,21.009331 0 0 1 690,164.58497 a 21.009331,21.009331 0 0 1 21.00933,21.00936 z" />
    <path
       id="port-26"
       style="fill:none;stroke:#000000;stroke-width:3.77953;stroke-linecap:butt;stroke-linejoin:miter;stroke-miterlimit:4;stroke-dasharray:none;stroke-opacity:1"
       d="M 717.47373,435.55315 H 662.52626 M 690,408.0794 v 54.94741 m 21.00933,-27.47366 A 21.009331,21.009331 0 0 1 690,456.5625 21.009331,21.009331 0 0 1 668.99067,435.55315 21.009331,21.009331 0 0 1 690,414.54379 a 21.009331,21.009331 0 0 1 21.00933,21.00936 z" />
    <path
       id="port-27"
       style="fill:none;stroke:#000000;stroke-width:3.77953;stroke-linecap:butt;stroke-linejoin:miter;stroke-miterlimit:4;stroke-dasharray:none;stroke-opacity:1"
       d="M 717.47373,565.90358 H 662.52626 M 690,538.42983 v 54.94741 m 21.00933,-27.47366 A 21.009331,21.009331 0 0 1 690,586.91293 21.009331,21.009331 0 0 1 668.99067,565.90358 21.009331,21.009331 0 0 1 690,544.89422 a 21.009331,21.009331 0 0 1 21.00933,21.00936 z" />
    <path
       id="port-28"
       style="fill:none;stroke:#000000;stroke-width:3.77953;stroke-linecap:butt;stroke-linejoin:miter;stroke-miterlimit:4;stroke-dasharray:none;stroke-opacity:1"
       d="M 717.47373,696.25408 H 662.52626 M 690,668.78033 v 54.94741 m 21.00933,-27.47366 A 21.009331,21.009331 0 0 1 690,717.26343 21.009331,21.009331 0 0 1 668.99067,696.25408 21.009331,21.009331 0 0 1 690,675.24472 a 21.009331,21.009331 0 0 1 21.00933,21.00936 z" />
    <path
       id="port-29"
       style="fill:none;stroke:#000000;stroke-width:3.77953;stroke-linecap:butt;stroke-linejoin:miter;stroke-miterlimit:4;stroke-dasharray:none;stroke-opacity:1"
       d="M 717.47373,826.60446 H 662.52626 M 690,799.13071 v 54.94741 m 21.00933,-27.47366 A 21.009331,21.009331 0 0 1 690,847.61381 21.009331,21.009331 0 0 1 668.99067,826.60446 21.009331,21.009331 0 0 1 690,805.5951 a 21.009331,21.009331 0 0 1 21.00933,21.00936 z" />
    <path
       id="port-30"
       style="fill:none;stroke:#000000;stroke-width:3.77953;stroke-linecap:butt;stroke-linejoin:miter;stroke-miterlimit:4;stroke-dasharray:none;stroke-opacity:1"
       d="M 717.47373,956.95485 H 662.52626 M 690,929.4811 v 54.94741 m 21.00933,-27.47366 A 21.009331,21.009331 0 0 1 690,977.9642 21.009331,21.009331 0 0 1 668.99067,956.95485 21.009331,21.009331 0 0 1 690,935.94549 a 21.009331,21.009331 0 0 1 21.00933,21.00936 z" />
    <path
       id="port-31"
       style="fill:none;stroke:#000000;stroke-width:3.77953;stroke-linecap:butt;stroke-linejoin:miter;stroke-miterlimit:4;stroke-dasharray:none;stroke-opacity:1"
       d="M 717.47373,1087.3054 H 662.52626 M 690,1059.8316 v 54.9474 m 21.00933,-27.4736 A 21.009331,21.009331 0 0 1 690,1108.3147 21.009331,21.009331 0 0 1 668.99067,1087.3054 21.009331,21.009331 0 0 1 690,1066.296 a 21.009331,21.009331 0 0 1 21.00933,21.0094 z" />
    <path
       id="port-32"
       style="fill:none;stroke:#000000;stroke-width:3.77953;stroke-linecap:butt;stroke-linejoin:miter;stroke-miterlimit:4;stroke-dasharray:none;stroke-opacity:1"
       d="M 838.66957,220.63204 H 783.7221 m 27.47374,-27.47375 v 54.94741 m 21.00933,-27.47366 a 21.009331,21.009331 0 0 1 -21.00933,21.00935 21.009331,21.009331 0 0 1 -21.00933,-21.00935 21.009331,21.009331 0 0 1 21.00933,-21.00936 21.009331,21.009331 0 0 1 21.00933,21.00936 z" />
    <path
       id="port-33"
       style="fill:none;stroke:#000000;stroke-width:3.77953;stroke-linecap:butt;stroke-linejoin:miter;stroke-miterlimit:4;stroke-dasharray:none;stroke-opacity:1"
       d="m 833.69291,382.60883 h -54.94747 m 27.47374,-27.47375 v 54.94741 m 21.00933,-27.47366 a 21.009331,21.009331 0 0 1 -21.00933,21.00935 21.009331,21.009331 0 0 1 -21.00933,-21.00935 21.009331,21.009331 0 0 1 21.00933,-21.00936 21.009331,21.009331 0 0 1 21.00933,21.00936 z" />
    <path
       id="port-34"
       style="fill:none;stroke:#000000;stroke-width:3.77953;stroke-linecap:butt;stroke-linejoin:miter;stroke-miterlimit:4;stroke-dasharray:none;stroke-opacity:1"
       d="m 833.69291,504.94059 h -54.94747 m 27.47374,-27.47375 v 54.94741 m 21.00933,-27.47366 a 21.009331,21.009331 0 0 1 -21.00933,21.00935 21.009331,21.009331 0 0 1 -21.00933,-21.00935 21.009331,21.009331 0 0 1 21.00933,-21.00936 21.009331,21.009331 0 0 1 21.00933,21.00936 z" />
    <path
       id="port-35"
       style="fill:none;stroke:#000000;stroke-width:3.77953;stroke-linecap:butt;stroke-linejoin:miter;stroke-miterlimit:4;stroke-dasharray:none;stroke-opacity:1"
       d="m 833.69291,627.27232 h -54.94747 m 27.47374,-27.47375 v 54.94741 m 21.00933,-27.47366 a 21.009331,21.009331 0 0 1 -21.00933,21.00935 21.009331,21.009331 0 0 1 -21.00933,-21.00935 21.009331,21.009331 0 0 1 21.00933,-21.00936 21.009331,21.009331 0 0 1 21.00933,21.00936 z" />
    <path
       id="port-36"
       style="fill:none;stroke:#000000;stroke-width:3.77953;stroke-linecap:butt;stroke-linejoin:miter;stroke-miterlimit:4;stroke-dasharray:none;stroke-opacity:1"
       d="m 833.69291,749.60404 h -54.94747 m 27.47374,-27.47375 v 54.94741 m 21.00933,-27.47366 a 21.009331,21.009331 0 0 1 -21.00933,21.00935 21.009331,21.009331 0 0 1 -21.00933,-21.00935 21.009331,21.009331 0 0 1 21.00933,-21.00936 21.009331,21.009331 0 0 1 21.00933,21.00936 z" />
    <path
       id="port-37"
       style="fill:none;stroke:#000000;stroke-width:3.77953;stroke-linecap:butt;stroke-linejoin:miter;stroke-miterlimit:4;stroke-dasharray:none;stroke-opacity:1"
       d="m 833.69291,871.93577 h -54.94747 m 27.47374,-27.47375 v 54.94741 m 21.00933,-27.47366 a 21.009331,21.009331 0 0 1 -21.00933,21.00935 21.009331,21.009331 0 0 1 -21.00933,-21.00935 21.009331,21.009331 0 0 1 21.00933,-21.00936 21.009331,21.009331 0 0 1 21.00933,21.00936 z" />
    <path
       id="port-38"
       style="fill:none;stroke:#000000;stroke-width:3.77953;stroke-linecap:butt;stroke-linejoin:miter;stroke-miterlimit:4;stroke-dasharray:none;stroke-opacity:1"
       d="m 833.69291,994.26752 h -54.94747 m 27.47374,-27.47378 v 54.94756 m 21.00933,-27.47378 a 21.009331,21.009331 0 0 1 -21.00933,21.00948 21.009331,21.009331 0 0 1 -21.00933,-21.00948 21.009331,21.009331 0 0 1 21.00933,-21.00939 21.009331,21.009331 0 0 1 21.00933,21.00939 z" />
    <path
       id="port-39"
       style="fill:none;stroke:#000000;stroke-width:3.77953;stroke-linecap:butt;stroke-linejoin:miter;stroke-miterlimit:4;stroke-dasharray:none;stroke-opacity:1"
       d="m 832.03402,1151.2677 h -54.94747 m 27.47374,-27.4737 v 54.9474 m 21.00933,-27.4737 a 21.009331,21.009331 0 0 1 -21.00933,21.0094 21.009331,21.009331 0 0 1 -21.00933,-21.0094 21.009331,21.009331 0 0 1 21.00933,-21.0093 21.009331,21.009331 0 0 1 21.00933,21.0093 z" />
    <path
       id="port-40"
       style="fill:none;stroke:#000000;stroke-width:3.77953;stroke-linecap:butt;stroke-linejoin:miter;stroke-miterlimit:4;stroke-dasharray:none;stroke-opacity:1"
       d="m 953.13275,290.3053 h -54.94743 m 27.47374,-27.47375 v 54.94741 m 21.00929,-27.47366 a 21.009331,21.009331 0 0 1 -21.00929,21.00935 21.009331,21.009331 0 0 1 -21.00933,-21.00935 21.009331,21.009331 0 0 1 21.00933,-21.00936 21.009331,21.009331 0 0 1 21.00929,21.00936 z" />
    <path
       id="port-41"
       style="fill:none;stroke:#000000;stroke-width:3.77953;stroke-linecap:butt;stroke-linejoin:miter;stroke-miterlimit:4;stroke-dasharray:none;stroke-opacity:1"
       d="m 952.72485,435.55316 h -54.94747 m 27.47374,-27.47375 v 54.94741 m 21.00933,-27.47366 a 21.009331,21.009331 0 0 1 -21.00933,21.00935 21.009331,21.009331 0 0 1 -21.00933,-21.00935 21.009331,21.009331 0 0 1 21.00933,-21.00936 21.009331,21.009331 0 0 1 21.00933,21.00936 z" />
    <path
       id="port-42"
       style="fill:none;stroke:#000000;stroke-width:3.77953;stroke-linecap:butt;stroke-linejoin:miter;stroke-miterlimit:4;stroke-dasharray:none;stroke-opacity:1"
       d="m 952.72484,565.90359 h -54.94747 m 27.47374,-27.47375 v 54.94741 m 21.00933,-27.47366 a 21.009331,21.009331 0 0 1 -21.00933,21.00935 21.009331,21.009331 0 0 1 -21.00933,-21.00935 21.009331,21.009331 0 0 1 21.00933,-21.00936 21.009331,21.009331 0 0 1 21.00933,21.00936 z" />
    <path
       id="port-43"
       style="fill:none;stroke:#000000;stroke-width:3.77953;stroke-linecap:butt;stroke-linejoin:miter;stroke-miterlimit:4;stroke-dasharray:none;stroke-opacity:1"
       d="m 950.37882,696.25409 h -54.94747 m 27.47374,-27.47375 v 54.94741 m 21.00933,-27.47366 a 21.009331,21.009331 0 0 1 -21.00933,21.00935 21.009331,21.009331 0 0 1 -21.00933,-21.00935 21.009331,21.009331 0 0 1 21.00933,-21.00936 21.009331,21.009331 0 0 1 21.00933,21.00936 z" />
    <path
       id="port-44"
       style="fill:none;stroke:#000000;stroke-width:3.77953;stroke-linecap:butt;stroke-linejoin:miter;stroke-miterlimit:4;stroke-dasharray:none;stroke-opacity:1"
       d="m 950.37883,826.60447 h -54.94747 m 27.47374,-27.47375 v 54.94741 m 21.00933,-27.47366 a 21.009331,21.009331 0 0 1 -21.00933,21.00935 21.009331,21.009331 0 0 1 -21.00933,-21.00935 21.009331,21.009331 0 0 1 21.00933,-21.00936 21.009331,21.009331 0 0 1 21.00933,21.00936 z" />
    <path
       id="port-45"
       style="fill:none;stroke:#000000;stroke-width:3.77953;stroke-linecap:butt;stroke-linejoin:miter;stroke-miterlimit:4;stroke-dasharray:none;stroke-opacity:1"
       d="m 950.37883,956.95483 h -54.94747 m 27.47374,-27.47372 v 54.94742 m 21.00933,-27.4737 a 21.009331,21.009331 0 0 1 -21.00933,21.0094 21.009331,21.009331 0 0 1 -21.00933,-21.0094 21.009331,21.009331 0 0 1 21.00933,-21.00933 21.009331,21.009331 0 0 1 21.00933,21.00933 z" />
    <path
       id="port-46"
       style="fill:none;stroke:#000000;stroke-width:3.77953;stroke-linecap:butt;stroke-linejoin:miter;stroke-miterlimit:4;stroke-dasharray:none;stroke-opacity:1"
       d="m 950.22293,1087.3054 h -54.94747 m 27.47374,-27.4738 v 54.9474 m 21.00933,-27.4736 a 21.009331,21.009331 0 0 1 -21.00933,21.0093 21.009331,21.009331 0 0 1 -21.00933,-21.0093 21.009331,21.009331 0 0 1 21.00933,-21.0094 21.009331,21.009331 0 0 1 21.00933,21.0094 z" />
    <path
       id="port-47"
       style="fill:none;stroke:#000000;stroke-width:3.77953;stroke-linecap:butt;stroke-linejoin:miter;stroke-miterlimit:4;stroke-dasharray:none;stroke-opacity:1"
       d="m 1062.6193,380.94993 h -54.9474 m 27.4737,-27.47375 v 54.94741 m 21.0093,-27.47366 a 21.009331,21.009331 0 0 1 -21.0093,21.00935 21.009331,21.009331 0 0 1 -21.0093,-21.00935 21.009331,21.009331 0 0 1 21.0093,-21.00936 21.009331,21.009331 0 0 1 21.0093,21.00936 z" />
    <path
       id="port-48"
       style="fill:none;stroke:#000000;stroke-width:3.77953;stroke-linecap:butt;stroke-linejoin:miter;stroke-miterlimit:4;stroke-dasharray:none;stroke-opacity:1"
       d="m 1062.6193,503.28169 h -54.9474 m 27.4737,-27.47375 v 54.94741 m 21.0093,-27.47366 a 21.009331,21.009331 0 0 1 -21.0093,21.00935 21.009331,21.009331 0 0 1 -21.0093,-21.00935 21.009331,21.009331 0 0 1 21.0093,-21.00936 21.009331,21.009331 0 0 1 21.0093,21.00936 z" />
    <path
       id="port-49"
       style="fill:none;stroke:#000000;stroke-width:3.77953;stroke-linecap:butt;stroke-linejoin:miter;stroke-miterlimit:4;stroke-dasharray:none;stroke-opacity:1"
       d="m 1062.6193,625.61342 h -54.9474 m 27.4737,-27.47375 v 54.94741 m 21.0093,-27.47366 a 21.009331,21.009331 0 0 1 -21.0093,21.00935 21.009331,21.009331 0 0 1 -21.0093,-21.00935 21.009331,21.009331 0 0 1 21.0093,-21.00936 21.009331,21.009331 0 0 1 21.0093,21.00936 z" />
    <path
       id="port-50"
       style="fill:none;stroke:#000000;stroke-width:3.77953;stroke-linecap:butt;stroke-linejoin:miter;stroke-miterlimit:4;stroke-dasharray:none;stroke-opacity:1"
       d="m 1062.6193,747.94514 h -54.9474 m 27.4737,-27.47375 v 54.94741 m 21.0093,-27.47366 a 21.009331,21.009331 0 0 1 -21.0093,21.00935 21.009331,21.009331 0 0 1 -21.0093,-21.00935 21.009331,21.009331 0 0 1 21.0093,-21.00936 21.009331,21.009331 0 0 1 21.0093,21.00936 z" />
    <path
       id="port-51"
       style="fill:none;stroke:#000000;stroke-width:3.77953;stroke-linecap:butt;stroke-linejoin:miter;stroke-miterlimit:4;stroke-dasharray:none;stroke-opacity:1"
       d="m 1062.6193,870.27687 h -54.9474 m 27.4737,-27.47375 v 54.94741 m 21.0093,-27.47366 a 21.009331,21.009331 0 0 1 -21.0093,21.00935 21.009331,21.009331 0 0 1 -21.0093,-21.00935 21.009331,21.009331 0 0 1 21.0093,-21.00936 21.009331,21.009331 0 0 1 21.0093,21.00936 z" />
    <path
       id="port-52"
       style="fill:none;stroke:#000000;stroke-width:3.77953;stroke-linecap:butt;stroke-linejoin:miter;stroke-miterlimit:4;stroke-dasharray:none;stroke-opacity:1"
       d="m 1062.6193,992.60856 h -54.9474 m 27.4737,-27.47372 v 54.94756 m 21.0093,-27.47384 a 21.009331,21.009331 0 0 1 -21.0093,21.00954 21.009331,21.009331 0 0 1 -21.0093,-21.00954 21.009331,21.009331 0 0 1 21.0093,-21.00933 21.009331,21.009331 0 0 1 21.0093,21.00933 z" />
    <path
       id="port-53"
       style="fill:none;stroke:#000000;stroke-width:3.77953;stroke-linecap:butt;stroke-linejoin:miter;stroke-miterlimit:4;stroke-dasharray:none;stroke-opacity:1"
       d="m 1173.2789,564.72333 h -54.9474 m 27.4737,-27.47375 v 54.94741 m 21.0093,-27.47366 a 21.009331,21.009331 0 0 1 -21.0093,21.00935 21.009331,21.009331 0 0 1 -21.0093,-21.00935 21.009331,21.009331 0 0 1 21.0093,-21.00936 21.009331,21.009331 0 0 1 21.0093,21.00936 z" />
    <path
       id="port-54"
       style="fill:none;stroke:#000000;stroke-width:3.77953;stroke-linecap:butt;stroke-linejoin:miter;stroke-miterlimit:4;stroke-dasharray:none;stroke-opacity:1"
       d="m 1170.9329,695.07383 h -54.9474 m 27.4737,-27.47375 v 54.94741 m 21.0093,-27.47366 a 21.009331,21.009331 0 0 1 -21.0093,21.00935 21.009331,21.009331 0 0 1 -21.0093,-21.00935 21.009331,21.009331 0 0 1 21.0093,-21.00936 21.009331,21.009331 0 0 1 21.0093,21.00936 z" />
    <path
       id="port-55"
       style="fill:none;stroke:#000000;stroke-width:3.77953;stroke-linecap:butt;stroke-linejoin:miter;stroke-miterlimit:4;stroke-dasharray:none;stroke-opacity:1"
       d="m 1170.9329,825.42421 h -54.9474 m 27.4737,-27.47375 v 54.94741 m 21.0093,-27.47366 a 21.009331,21.009331 0 0 1 -21.0093,21.00935 21.009331,21.009331 0 0 1 -21.0093,-21.00935 21.009331,21.009331 0 0 1 21.0093,-21.00936 21.009331,21.009331 0 0 1 21.0093,21.00936 z" />
    <path
       style="fill:#000000;fill-opacity:1;stroke:#000000;stroke-width:1px;stroke-linecap:butt;stroke-linejoin:miter;stroke-opacity:1"
       d="m 665.48915,60.951896 h 51.63286 v 16.018629 h 15.13735 l -41.8869,33.747985 -42.61267,-33.747985 h 17.93672 z"
       id="path4154" />
    <path
       id="path1204"
       style="fill:none;stroke:#000000;stroke-width:3.77953;stroke-linecap:butt;stroke-linejoin:miter;stroke-miterlimit:4;stroke-dasharray:none;stroke-opacity:1"
       d="m 690,1186.1043 v 116.1221 m 0,-296.9408 v 39.8133 m 0,-169.20647 v 36.49552 m 0,-169.20649 v 36.49551 m 0,-162.57094 v 34.83663 m 0,-164.22983 v 33.17774 m 0,-283.66971 V 374.9085 m 59.80181,775.5298 -121.913,90.5353 m 121.913,-1036.93047 58.07625,-77.9677 m 281.05414,757.49942 86.3091,86.30909 M 512.59614,1105.6483 433.799,1182.7866 m -36.49552,-168.3771 -103.68045,66.3555 m -4.83679,-197.20287 -85.40191,85.40191 m 660.05126,-717.2279 78.79714,-77.13826 m 36.49552,168.37706 103.68045,-66.35549 m 6.5228,193.3181 86.2577,-86.25769 M 512.59614,251.32141 433.799,174.18315 M 397.30348,342.56021 293.62303,276.20472 m -4.80711,192.94504 -83.28345,-83.28345 M 1089.0594,678 V 883.70201 M 978.72825,680.55846 V 1164.1401 M 863.43559,680.55846 V 1216.1898 M 749.80181,676.82597 V 1150.4383 M 288.64637,678 V 883.70201 M 397.30348,680.97319 V 1014.4095 M 512.59614,680.97319 V 1105.6483 M 627.88881,678.07014 V 1240.9736 M 1089.0594,675.51168 V 469.80967 M 978.72825,676.41126 V 342.97494 M 863.43559,676.41126 V 251.73614 M 749.80181,677.65543 V 204.04313 M 288.64637,674.68222 V 468.98021 M 397.30348,675.99653 V 342.56021 M 512.59614,675.99653 V 251.32141 M 627.88881,678.07014 V 116.48206 M 886.67521,678 H 732.3987 m 376.5673,0 H 959.66624 m 355.00186,0 h -139.3466 m -684.2909,0 h 153.44707 m -374.07906,0 H 418.03957 M 63.037713,678 H 199.06647 m 1057.13153,0 c 0,150.16505 -59.6528,294.17972 -165.8356,400.3624 C 984.17972,1184.5452 840.16505,1244.198 690,1244.198 c -150.16505,0 -294.17972,-59.6528 -400.36245,-165.8356 C 183.45483,972.17972 123.802,828.16505 123.802,678 123.802,527.83495 183.45483,383.82028 289.63755,277.63755 395.82028,171.45483 539.83495,111.802 690,111.802 c 150.16505,0 294.17972,59.65283 400.3624,165.83555 C 1196.5452,383.82028 1256.198,527.83495 1256.198,678 Z" />
    <text
       xml:space="preserve"
       style="font-style:normal;font-weight:normal;font-size:40px;line-height:1.25;font-family:sans-serif;fill:#000000;fill-opacity:1;stroke:none"
       x="664.53156"
       y="151.09875"
       id="text1211"><tspan
         id="tspan1209"
         x="664.53156"
         y="151.09875">25</tspan></text>
    <text
       xml:space="preserve"
       style="font-style:normal;font-weight:normal;font-size:40px;line-height:1.25;font-family:sans-serif;fill:#000000;fill-opacity:1;stroke:none"
       x="506.91684"
       y="186.13835"
       id="text1211-3"><tspan
         id="tspan1209-3"
         x="506.91684"
         y="186.13835">17</tspan></text>
    <text
       xml:space="preserve"
       style="font-style:normal;font-weight:normal;font-size:40px;line-height:1.25;font-family:sans-serif;fill:#000000;fill-opacity:1;stroke:none"
       x="377.27588"
       y="264.44717"
       id="text1211-1"><tspan
         id="tspan1209-5"
         x="377.27588"
         y="264.44717">10</tspan></text>
    <text
       xml:space="preserve"
       style="font-style:normal;font-weight:normal;font-size:40px;line-height:1.25;font-family:sans-serif;fill:#000000;fill-opacity:1;stroke:none"
       x="191.72829"
       y="491.3736"
       id="text1211-6"><tspan
         id="tspan1209-1"
         x="191.72829"
         y="491.3736">1</tspan></text>
    <text
       xml:space="preserve"
       style="font-style:normal;font-weight:normal;font-size:40px;line-height:1.25;font-family:sans-serif;fill:#000000;fill-opacity:1;stroke:none"
       x="276.13043"
       y="371.29816"
       id="text1211-14"><tspan
         id="tspan1209-9"
         x="276.13043"
         y="371.29816">4</tspan></text>
    <text
       xml:space="preserve"
       style="font-style:normal;font-weight:normal;font-size:40px;line-height:1.25;font-family:sans-serif;fill:#000000;fill-opacity:1;stroke:none"
       x="833.71765"
       y="189.45613"
       id="text1211-8"><tspan
         id="tspan1209-2"
         x="833.71765"
         y="189.45613">32</tspan></text>
    <text
       xml:space="preserve"
       style="font-style:normal;font-weight:normal;font-size:40px;line-height:1.25;font-family:sans-serif;fill:#000000;fill-opacity:1;stroke:none"
       x="951.54529"
       y="263.85828"
       id="text1211-9"><tspan
         id="tspan1209-13"
         x="951.54529"
         y="263.85828">40</tspan></text>
    <text
       xml:space="preserve"
       style="font-style:normal;font-weight:normal;font-size:40px;line-height:1.25;font-family:sans-serif;fill:#000000;fill-opacity:1;stroke:none"
       x="1070.9385"
       y="368.61594"
       id="text1211-0"><tspan
         id="tspan1209-7"
         x="1070.9385"
         y="368.61594">47</tspan></text>
    <text
       xml:space="preserve"
       style="font-style:normal;font-weight:normal;font-size:40px;line-height:1.25;font-family:sans-serif;fill:#000000;fill-opacity:1;stroke:none"
       x="1132.7051"
       y="511.3736"
       id="text1211-7"><tspan
         id="tspan1209-34"
         x="1132.7051"
         y="511.3736">53</tspan></text>
    <text
       xml:space="preserve"
       style="font-style:normal;font-weight:normal;font-size:40px;line-height:1.25;font-family:sans-serif;fill:#000000;fill-opacity:1;stroke:none"
       x="1119.3873"
       y="896.18872"
       id="text1211-06"><tspan
         id="tspan1209-6"
         x="1119.3873"
         y="896.18872">55</tspan></text>
    <text
       xml:space="preserve"
       style="font-style:normal;font-weight:normal;font-size:40px;line-height:1.25;font-family:sans-serif;fill:#000000;fill-opacity:1;stroke:none"
       x="1006.0408"
       y="1068.2786"
       id="text1211-5"><tspan
         id="tspan1209-62"
         x="1006.0408"
         y="1068.2786">52</tspan></text>
    <text
       xml:space="preserve"
       style="font-style:normal;font-weight:normal;font-size:40px;line-height:1.25;font-family:sans-serif;fill:#000000;fill-opacity:1;stroke:none"
       x="890.55426"
       y="1158.2462"
       id="text1211-52"><tspan
         id="tspan1209-52"
         x="890.55426"
         y="1158.2462">46</tspan></text>
    <text
       xml:space="preserve"
       style="font-style:normal;font-weight:normal;font-size:40px;line-height:1.25;font-family:sans-serif;fill:#000000;fill-opacity:1;stroke:none"
       x="745.59552"
       y="1212.9895"
       id="text1211-87"><tspan
         id="tspan1209-14"
         x="745.59552"
         y="1212.9895">39</tspan></text>
    <text
       xml:space="preserve"
       style="font-style:normal;font-weight:normal;font-size:40px;line-height:1.25;font-family:sans-serif;fill:#000000;fill-opacity:1;stroke:none"
       x="663.92126"
       y="1164.8817"
       id="text1211-79"><tspan
         id="tspan1209-31"
         x="663.92126"
         y="1164.8817">31</tspan></text>
    <text
       xml:space="preserve"
       style="font-style:normal;font-weight:normal;font-size:40px;line-height:1.25;font-family:sans-serif;fill:#000000;fill-opacity:1;stroke:none"
       x="487.10355"
       y="1191.765"
       id="text1211-01"><tspan
         id="tspan1209-37"
         x="487.10355"
         y="1191.765">24</tspan></text>
    <text
       xml:space="preserve"
       style="font-style:normal;font-weight:normal;font-size:40px;line-height:1.25;font-family:sans-serif;fill:#000000;fill-opacity:1;stroke:none"
       x="364.00479"
       y="1115.7974"
       id="text1211-794"><tspan
         id="tspan1209-4"
         x="364.00479"
         y="1115.7974">16</tspan></text>
    <text
       xml:space="preserve"
       style="font-style:normal;font-weight:normal;font-size:40px;line-height:1.25;font-family:sans-serif;fill:#000000;fill-opacity:1;stroke:none"
       x="272.13043"
       y="1023.9697"
       id="text1211-07"><tspan
         id="tspan1209-56"
         x="272.13043"
         y="1023.9697">9</tspan></text>
    <text
       xml:space="preserve"
       style="font-style:normal;font-weight:normal;font-size:40px;line-height:1.25;font-family:sans-serif;fill:#000000;fill-opacity:1;stroke:none"
       x="189.18608"
       y="897.16541"
       id="text1211-88"><tspan
         id="tspan1209-68"
         x="189.18608"
         y="897.16541">3</tspan></text>
  </g>
</svg>
