<?xml version="1.0" encoding="UTF-8" standalone="no"?>
<svg
   xmlns:dc="http://purl.org/dc/elements/1.1/"
   xmlns:cc="http://creativecommons.org/ns#"
   xmlns:rdf="http://www.w3.org/1999/02/22-rdf-syntax-ns#"
   xmlns:svg="http://www.w3.org/2000/svg"
   xmlns="http://www.w3.org/2000/svg"
   xmlns:sodipodi="http://sodipodi.sourceforge.net/DTD/sodipodi-0.dtd"
   xmlns:inkscape="http://www.inkscape.org/namespaces/inkscape"
   version="1.1"
   id="svg835"
   width="1109.3333"
   height="1141.3333"
   viewBox="0 0 1109.3333 1141.3333"
   sodipodi:docname="TV06RW-21-16P.svg"
   inkscape:version="1.0.2-2 (e86c870879, 2021-01-15)">
  <metadata
     id="metadata841">
    <rdf:RDF>
      <cc:Work
         rdf:about="">
        <dc:format>image/svg+xml</dc:format>
        <dc:type
           rdf:resource="http://purl.org/dc/dcmitype/StillImage" />
        <dc:title></dc:title>
      </cc:Work>
    </rdf:RDF>
  </metadata>
  <defs
     id="defs839" />
  <sodipodi:namedview
     pagecolor="#ffffff"
     bordercolor="#666666"
     borderopacity="1"
     objecttolerance="10"
     gridtolerance="10"
     guidetolerance="10"
     inkscape:pageopacity="0"
     inkscape:pageshadow="2"
     inkscape:window-width="1920"
     inkscape:window-height="1027"
     id="namedview837"
     showgrid="false"
     inkscape:zoom="0.75350473"
     inkscape:cx="354.11105"
     inkscape:cy="540.48916"
     inkscape:window-x="1352"
     inkscape:window-y="-8"
     inkscape:window-maximized="1"
     inkscape:current-layer="g843" />
  <g
     inkscape:groupmode="layer"
     inkscape:label="Image"
     id="g843">
    <path
       id="path1441-8-8"
       style="fill:none;stroke:#000000;stroke-width:5.00032;stroke-linecap:butt;stroke-linejoin:miter;stroke-miterlimit:4;stroke-dasharray:none;stroke-opacity:1"
       d="m 554.66663,557.646 v 26.04126 m 13.02063,-13.02063 H 541.646 m 13.02063,349.49103 v 15.01478 M 189.91275,570.66663 h 15.01478 m 698.77461,0 h 15.01478 m -15.47431,0 A 348.57599,348.57599 0 0 1 554.66663,919.24261 348.57599,348.57599 0 0 1 206.09064,570.66663 348.57599,348.57599 0 0 1 554.66663,222.09064 348.57599,348.57599 0 0 1 903.24261,570.66663 Z" />
    <path
       id="port-A"
       style="fill:none;stroke:#000000;stroke-width:4.8;stroke-miterlimit:4;stroke-dasharray:none"
       d="m 678.76062,297.46615 a 25.302204,25.302204 0 0 1 -25.3022,25.30221 25.302204,25.302204 0 0 1 -25.30221,-25.30221 25.302204,25.302204 0 0 1 25.30221,-25.3022 25.302204,25.302204 0 0 1 25.3022,25.3022 z M 653.45841,284.4455 v 26.04126 m 13.02063,-13.02063 h -26.04126" />
    <path
       id="port-B"
       style="fill:none;stroke:#000000;stroke-width:4.8;stroke-miterlimit:4;stroke-dasharray:none"
       d="m 800.1861,393.55314 a 25.302204,25.302204 0 0 1 -25.3022,25.30221 25.302204,25.302204 0 0 1 -25.30221,-25.30221 25.302204,25.302204 0 0 1 25.30221,-25.3022 25.302204,25.302204 0 0 1 25.3022,25.3022 z m -25.30221,-13.02065 v 26.04126 m 13.02063,-13.02063 h -26.04126" />
    <path
       id="port-C"
       style="fill:none;stroke:#000000;stroke-width:4.8;stroke-miterlimit:4;stroke-dasharray:none"
       d="m 864.62677,541.88606 a 25.302204,25.302204 0 0 1 -25.3022,25.30221 25.302204,25.302204 0 0 1 -25.30221,-25.30221 25.302204,25.302204 0 0 1 25.30221,-25.3022 25.302204,25.302204 0 0 1 25.3022,25.3022 z m -25.30221,-13.02065 v 26.04126 m 13.02063,-13.02063 h -26.04126" />
    <path
       id="port-D"
       style="fill:none;stroke:#000000;stroke-width:4.8;stroke-miterlimit:4;stroke-dasharray:none"
       d="m 836.56717,700.95322 a 25.302204,25.302204 0 0 1 -25.3022,25.30221 25.302204,25.302204 0 0 1 -25.30221,-25.30221 25.302204,25.302204 0 0 1 25.30221,-25.3022 25.302204,25.302204 0 0 1 25.3022,25.3022 z m -25.30221,-13.02065 v 26.04126 m 13.02063,-13.02063 h -26.04126" />
    <path
       id="port-E"
       style="fill:none;stroke:#000000;stroke-width:4.8;stroke-miterlimit:4;stroke-dasharray:none"
       d="m 734.72888,815.47526 a 25.302204,25.302204 0 0 1 -25.3022,25.30221 25.302204,25.302204 0 0 1 -25.30221,-25.30221 25.302204,25.302204 0 0 1 25.30221,-25.3022 25.302204,25.302204 0 0 1 25.3022,25.3022 z m -25.30221,-13.02065 v 26.04126 m 13.02063,-13.02063 h -26.04126" />
    <path
       id="port-F"
       style="fill:none;stroke:#000000;stroke-width:4.8;stroke-miterlimit:4;stroke-dasharray:none"
       d="m 579.96883,857.96272 a 25.302204,25.302204 0 0 1 -25.3022,25.30221 25.302204,25.302204 0 0 1 -25.30221,-25.30221 25.302204,25.302204 0 0 1 25.30221,-25.3022 25.302204,25.302204 0 0 1 25.3022,25.3022 z m -25.30221,-13.02065 v 26.04126 m 13.02063,-13.02063 h -26.04126" />
    <path
       id="port-G"
       style="fill:none;stroke:#000000;stroke-width:4.8;stroke-miterlimit:4;stroke-dasharray:none"
       d="m 432.34292,815.47526 a 25.302204,25.302204 0 0 1 -25.3022,25.30221 25.302204,25.302204 0 0 1 -25.30221,-25.30221 25.302204,25.302204 0 0 1 25.30221,-25.3022 25.302204,25.302204 0 0 1 25.3022,25.3022 z m -25.30221,-13.02065 v 26.04126 m 13.02063,-13.02063 h -26.04126" />
    <path
       id="port-H"
       style="fill:none;stroke:#000000;stroke-width:4.8;stroke-miterlimit:4;stroke-dasharray:none"
       d="m 325.4226,700.95322 a 25.302204,25.302204 0 0 1 -25.3022,25.30221 25.302204,25.302204 0 0 1 -25.30221,-25.30221 25.302204,25.302204 0 0 1 25.30221,-25.3022 25.302204,25.302204 0 0 1 25.3022,25.3022 z m -25.30221,-13.02065 v 26.04126 m 13.02063,-13.02063 h -26.04126" />
    <path
       id="port-J"
       style="fill:none;stroke:#000000;stroke-width:4.8;stroke-miterlimit:4;stroke-dasharray:none"
       d="m 297.06981,541.88606 a 25.302204,25.302204 0 0 1 -25.3022,25.30221 25.302204,25.302204 0 0 1 -25.30221,-25.30221 25.302204,25.302204 0 0 1 25.30221,-25.3022 25.302204,25.302204 0 0 1 25.3022,25.3022 z M 271.7676,528.86541 v 26.04126 m 13.02063,-13.02063 h -26.04126" />
    <path
       id="port-K"
       style="fill:none;stroke:#000000;stroke-width:4.8;stroke-miterlimit:4;stroke-dasharray:none"
       d="m 359.73939,393.55314 a 25.302204,25.302204 0 0 1 -25.3022,25.30221 25.302204,25.302204 0 0 1 -25.30221,-25.30221 25.302204,25.302204 0 0 1 25.30221,-25.3022 25.302204,25.302204 0 0 1 25.3022,25.3022 z m -25.30221,-13.02065 v 26.04126 m 13.02063,-13.02063 h -26.04126" />
    <path
       id="port-L"
       style="fill:none;stroke:#000000;stroke-width:4.8;stroke-miterlimit:4;stroke-dasharray:none"
       d="m 483.80667,297.46614 a 25.302204,25.302204 0 0 1 -25.3022,25.30222 25.302204,25.302204 0 0 1 -25.30221,-25.30222 25.302204,25.302204 0 0 1 25.30221,-25.3022 25.302204,25.302204 0 0 1 25.3022,25.3022 z M 458.50446,284.4455 v 26.04126 m 13.02063,-13.02063 h -26.04126" />
    <path
       id="port-M"
       style="fill:none;stroke:#000000;stroke-width:4.8;stroke-miterlimit:4;stroke-dasharray:none"
       d="m 579.96883,423.97206 a 25.302204,25.302204 0 0 1 -25.3022,25.30221 25.302204,25.302204 0 0 1 -25.30221,-25.30221 25.302204,25.302204 0 0 1 25.30221,-25.3022 25.302204,25.302204 0 0 1 25.3022,25.3022 z m -25.30221,-13.02065 v 26.04126 m 13.02063,-13.02063 h -26.04126" />
    <path
       id="port-N"
       style="fill:none;stroke:#000000;stroke-width:4.8;stroke-miterlimit:4;stroke-dasharray:none"
       d="m 712.75642,526.25487 a 25.302204,25.302204 0 0 1 -25.3022,25.30221 25.302204,25.302204 0 0 1 -25.30221,-25.30221 25.302204,25.302204 0 0 1 25.30221,-25.3022 25.302204,25.302204 0 0 1 25.3022,25.3022 z m -25.30221,-13.02065 v 26.04126 m 13.02063,-13.02063 h -26.04126" />
    <path
       id="port-P"
       style="fill:none;stroke:#000000;stroke-width:4.8;stroke-miterlimit:4;stroke-dasharray:none"
       d="m 658.50503,680.62991 a 25.302204,25.302204 0 0 1 -25.3022,25.30221 25.302204,25.302204 0 0 1 -25.30221,-25.30221 25.302204,25.302204 0 0 1 25.30221,-25.3022 25.302204,25.302204 0 0 1 25.3022,25.3022 z m -25.30221,-13.02065 v 26.04126 m 13.02063,-13.02063 h -26.04126" />
    <path
       id="port-R"
       style="fill:none;stroke:#000000;stroke-width:4.8;stroke-miterlimit:4;stroke-dasharray:none"
       d="m 496.91697,680.62991 a 25.302204,25.302204 0 0 1 -25.3022,25.30221 25.302204,25.302204 0 0 1 -25.30221,-25.30221 25.302204,25.302204 0 0 1 25.30221,-25.3022 25.302204,25.302204 0 0 1 25.3022,25.3022 z m -25.30221,-13.02065 v 26.04126 m 13.02063,-13.02063 h -26.04126" />
    <path
       id="port-S"
       style="fill:none;stroke:#000000;stroke-width:4.8;stroke-miterlimit:4;stroke-dasharray:none"
       d="m 446.41928,526.25487 a 25.302204,25.302204 0 0 1 -25.3022,25.30221 25.302204,25.302204 0 0 1 -25.30221,-25.30221 25.302204,25.302204 0 0 1 25.30221,-25.3022 25.302204,25.302204 0 0 1 25.3022,25.3022 z m -25.30221,-13.02065 v 26.04126 m 13.02063,-13.02063 h -26.04126" />
    <path
       style="fill:#000000;fill-opacity:1;stroke:#000000;stroke-width:2.13543;stroke-linecap:butt;stroke-linejoin:miter;stroke-miterlimit:4;stroke-dasharray:none;stroke-opacity:1"
       d="m 556.56984,200.51443 v 4.51689 l 21.06821,-0.16665 -22.65567,15.03276 -23.22204,-14.86611 h 21.32578 v -4.51689 z"
       id="path1641"
       sodipodi:nodetypes="cccccccc" />
    <text
       xml:space="preserve"
       style="font-style:normal;font-weight:normal;font-size:40px;line-height:1.25;font-family:sans-serif;fill:#000000;fill-opacity:1;stroke:none"
       x="593.22791"
       y="294.62323"
       id="text1646"><tspan
         sodipodi:role="line"
         id="tspan1644"
         x="593.22791"
         y="294.62323">A</tspan></text>
    <text
       xml:space="preserve"
       style="font-style:normal;font-weight:normal;font-size:40px;line-height:1.25;font-family:sans-serif;fill:#000000;fill-opacity:1;stroke:none"
       x="721.95966"
       y="379.55966"
       id="text1650"><tspan
         sodipodi:role="line"
         id="tspan1648"
         x="721.95966"
         y="379.55966">B</tspan></text>
    <text
       xml:space="preserve"
       style="font-style:normal;font-weight:normal;font-size:40px;line-height:1.25;font-family:sans-serif;fill:#000000;fill-opacity:1;stroke:none"
       x="849.36426"
       y="514.92706"
       id="text1654"><tspan
         sodipodi:role="line"
         id="tspan1652"
         x="849.36426"
         y="514.92706">C</tspan></text>
    <text
       xml:space="preserve"
       style="font-style:normal;font-weight:normal;font-size:40px;line-height:1.25;font-family:sans-serif;fill:#000000;fill-opacity:1;stroke:none"
       x="761.77362"
       y="745.84802"
       id="text1658"><tspan
         sodipodi:role="line"
         id="tspan1656"
         x="761.77362"
         y="745.84802">D</tspan></text>
    <text
       xml:space="preserve"
       style="font-style:normal;font-weight:normal;font-size:40px;line-height:1.25;font-family:sans-serif;fill:#000000;fill-opacity:1;stroke:none"
       x="741.86664"
       y="836.09296"
       id="text1662"><tspan
         sodipodi:role="line"
         id="tspan1660"
         x="741.86664"
         y="836.09296">E</tspan></text>
    <text
       xml:space="preserve"
       style="font-style:normal;font-weight:normal;font-size:40px;line-height:1.25;font-family:sans-serif;fill:#000000;fill-opacity:1;stroke:none"
       x="586.59222"
       y="897.14099"
       id="text1666"><tspan
         sodipodi:role="line"
         id="tspan1664"
         x="586.59222"
         y="897.14099">F</tspan></text>
    <text
       xml:space="preserve"
       style="font-style:normal;font-weight:normal;font-size:40px;line-height:1.25;font-family:sans-serif;fill:#000000;fill-opacity:1;stroke:none"
       x="428.66354"
       y="873.25262"
       id="text1670"><tspan
         sodipodi:role="line"
         id="tspan1668"
         x="428.66354"
         y="873.25262">G</tspan></text>
    <text
       xml:space="preserve"
       style="font-style:normal;font-weight:normal;font-size:40px;line-height:1.25;font-family:sans-serif;fill:#000000;fill-opacity:1;stroke:none"
       x="310.54883"
       y="761.77356"
       id="text1674"><tspan
         sodipodi:role="line"
         id="tspan1672"
         x="310.54883"
         y="761.77356">H</tspan></text>
    <text
       xml:space="preserve"
       style="font-style:normal;font-weight:normal;font-size:40px;line-height:1.25;font-family:sans-serif;fill:#000000;fill-opacity:1;stroke:none"
       x="246.8465"
       y="510.94571"
       id="text1678"><tspan
         sodipodi:role="line"
         id="tspan1676"
         x="246.8465"
         y="510.94571">J</tspan></text>
    <text
       xml:space="preserve"
       style="font-style:normal;font-weight:normal;font-size:40px;line-height:1.25;font-family:sans-serif;fill:#000000;fill-opacity:1;stroke:none"
       x="276.0434"
       y="406.10229"
       id="text1682"><tspan
         sodipodi:role="line"
         id="tspan1680"
         x="276.0434"
         y="406.10229">K</tspan></text>
    <text
       xml:space="preserve"
       style="font-style:normal;font-weight:normal;font-size:40px;line-height:1.25;font-family:sans-serif;fill:#000000;fill-opacity:1;stroke:none"
       x="403.44803"
       y="302.58603"
       id="text1686"><tspan
         sodipodi:role="line"
         id="tspan1684"
         x="403.44803"
         y="302.58603">L</tspan></text>
    <text
       xml:space="preserve"
       style="font-style:normal;font-weight:normal;font-size:40px;line-height:1.25;font-family:sans-serif;fill:#000000;fill-opacity:1;stroke:none"
       x="573.32092"
       y="395.48523"
       id="text1690"><tspan
         sodipodi:role="line"
         id="tspan1688"
         x="573.32092"
         y="395.48523">M</tspan></text>
    <text
       xml:space="preserve"
       style="font-style:normal;font-weight:normal;font-size:40px;line-height:1.25;font-family:sans-serif;fill:#000000;fill-opacity:1;stroke:none"
       x="716.65112"
       y="505.63718"
       id="text1694"><tspan
         sodipodi:role="line"
         id="tspan1692"
         x="716.65112"
         y="505.63718">N</tspan></text>
    <text
       xml:space="preserve"
       style="font-style:normal;font-weight:normal;font-size:40px;line-height:1.25;font-family:sans-serif;fill:#000000;fill-opacity:1;stroke:none"
       x="666.22009"
       y="672.85577"
       id="text1698"><tspan
         sodipodi:role="line"
         id="tspan1696"
         x="666.22009"
         y="672.85577">P</tspan></text>
    <text
       xml:space="preserve"
       style="font-style:normal;font-weight:normal;font-size:40px;line-height:1.25;font-family:sans-serif;fill:#000000;fill-opacity:1;stroke:none"
       x="506.96432"
       y="671.52863"
       id="text1702"><tspan
         sodipodi:role="line"
         id="tspan1700"
         x="506.96432"
         y="671.52863">R</tspan></text>
    <text
       xml:space="preserve"
       style="font-style:normal;font-weight:normal;font-size:40px;line-height:1.25;font-family:sans-serif;fill:#000000;fill-opacity:1;stroke:none"
       x="426.00925"
       y="492.36584"
       id="text1706"><tspan
         sodipodi:role="line"
         id="tspan1704"
         x="426.00925"
         y="492.36584">S</tspan></text>
  </g>
</svg>
