<?xml version="1.0" encoding="utf-8"?>
<!DOCTYPE svg PUBLIC "-//W3C//DTD SVG 1.1//EN" "http://www.w3.org/Graphics/SVG/1.1/DTD/svg11.dtd">
<!-- Generator: Adobe Illustrator 22.1.0, SVG Export Plug-In . SVG Version: 6.00 Build 0)  -->
<svg version="1.1" xmlns:cc="http://creativecommons.org/ns#" xmlns:dc="http://purl.org/dc/elements/1.1/" xmlns:rdf="http://www.w3.org/1999/02/22-rdf-syntax-ns#" xmlns:sodipodi="http://sodipodi.sourceforge.net/DTD/sodipodi-0.dtd" xmlns:svg="http://www.w3.org/2000/svg" xmlns="http://www.w3.org/2000/svg" xmlns:xlink="http://www.w3.org/1999/xlink" x="0px" y="0px" width="250px" height="275px" viewBox="0 0 250 275" style="enable-background:new 0 0 250 275;" xml:space="preserve">
<style type="text/css">
	.st0{fill:none;stroke:#000000;stroke-width:2;stroke-miterlimit:10;}
	.st1{fill:#B3B3B3;stroke:#000000;stroke-width:0.5;stroke-miterlimit:10;}
	.st2{fill:none;stroke:#000000;stroke-width:0.5;stroke-linecap:round;stroke-miterlimit:10;}
	.st3{fill:#E6E6E6;stroke:#000000;stroke-width:0.5;stroke-miterlimit:10;}
	.st4{font-family:Liberation Sans,sans-serif;}
	.st5{font-size:12px;}
	.st6{fill:#FFFFFF;stroke:#000000;stroke-width:0.5;stroke-miterlimit:10;}
	.st7{fill:#FFFF00;stroke:#000000;stroke-width:0.5;stroke-miterlimit:10;}
	.st8{font-size:14px;}
	.st9{fill:#E6E6E6;stroke:#000000;stroke-width:2;stroke-miterlimit:10;}
</style>
<g>
	<g>
		<polygon class="st0" points="224.1,227.9 224.1,236.3 163.5,236.3 163.5,227.9 169.9,221.6 217.7,221.6 		"/>
		<path class="st1" d="M217.7,221.6h-47.8l-6.4,6.3v8.4h60.6v-8.4L217.7,221.6z"/>
		<g>
			<path class="st2" d="M209.9,237.6h-2.4"/>
			<path class="st2" d="M180.1,237.6h-2.4"/>
			<path class="st2" d="M195,237.6h-2.4"/>
		</g>
		<rect x="170.5" y="236.9" class="st3" width="3" height="4.5"/>
		<rect x="213.2" y="236.9" class="st3" width="3" height="4.5"/>
		<g>
			<text transform="matrix(1 0 0 1 203.2134 219.3373)" class="st4 st5">5</text>
			<text transform="matrix(1 0 0 1 196.7276 219.337)" class="st4 st5">4</text>
			<text transform="matrix(1 0 0 1 190.3294 219.337)" class="st4 st5">3</text>
			<text transform="matrix(1 0 0 1 184.121 219.3368)" class="st4 st5">2</text>
			<text transform="matrix(1 0 0 1 177.7668 219.3365)" class="st4 st5">1</text>
		</g>
		<rect x="177.6" y="230" class="st3" width="32.5" height="6.3"/>
		<g>
			<g>
				<rect x="181.1" y="225.7" class="st6" width="1.5" height="6.8"/>
				<rect x="181.1" y="227.9" class="st7" width="1.5" height="4.5"/>
			</g>
			<g>
				<rect x="205" y="225.7" class="st6" width="1.5" height="6.8"/>
				<rect x="205" y="227.9" class="st7" width="1.5" height="4.5"/>
			</g>
			<g>
				<rect x="199.1" y="225.7" class="st6" width="1.5" height="6.8"/>
				<rect x="199.1" y="227.9" class="st7" width="1.5" height="4.5"/>
			</g>
			<g>
				<rect x="193.1" y="225.7" class="st6" width="1.5" height="6.8"/>
				<rect x="193.1" y="227.9" class="st7" width="1.5" height="4.5"/>
			</g>
			<g>
				<rect x="187.1" y="225.7" class="st6" width="1.5" height="6.8"/>
				<rect x="187.1" y="227.9" class="st7" width="1.5" height="4.5"/>
			</g>
		</g>
	</g>
	<text transform="matrix(1 0 0 1 169.7174 258.9333)" class="st4 st8">Micro-B</text>
</g>
<g>
	<g>
		<g>
			<path class="st0" d="M104.2,224.9v9.6c0,1.3-1,2.4-2.4,2.4H45.9c-1.3,0-2.4-1.1-2.4-2.4v-9.6c0-1.3,1.1-2.4,2.4-2.4h55.9
				C103.1,222.5,104.2,223.6,104.2,224.9z"/>
			<path class="st1" d="M101.8,222.5H45.9c-1.3,0-2.4,1.1-2.4,2.4v9.6c0,1.3,1.1,2.4,2.4,2.4h55.9c1.4,0,2.4-1.1,2.4-2.4v-9.6
				C104.2,223.6,103.1,222.5,101.8,222.5z"/>
			<g>
				<path class="st2" d="M90,238.1h-2.4"/>
				<path class="st2" d="M60.2,238.1h-2.4"/>
				<path class="st2" d="M75.1,238.1h-2.4"/>
			</g>
			<g>
				<rect x="51" y="237.8" class="st3" width="3" height="4.5"/>
				<rect x="93.7" y="237.8" class="st3" width="3" height="4.5"/>
			</g>
			<g>
				<rect x="57.6" y="230.6" class="st3" width="32.5" height="6.3"/>
				<g>
					<g>
						<rect x="61.2" y="226.3" class="st6" width="1.5" height="6.8"/>
						<rect x="61.2" y="228.5" class="st7" width="1.5" height="4.5"/>
					</g>
					<g>
						<rect x="85.1" y="226.3" class="st6" width="1.5" height="6.8"/>
						<rect x="85.1" y="228.5" class="st7" width="1.5" height="4.5"/>
					</g>
					<g>
						<rect x="79.1" y="226.3" class="st6" width="1.5" height="6.8"/>
						<rect x="79.1" y="228.5" class="st7" width="1.5" height="4.5"/>
					</g>
					<g>
						<rect x="73.1" y="226.3" class="st6" width="1.5" height="6.8"/>
						<rect x="73.1" y="228.5" class="st7" width="1.5" height="4.5"/>
					</g>
					<g>
						<rect x="67.1" y="226.3" class="st6" width="1.5" height="6.8"/>
						<rect x="67.1" y="228.5" class="st7" width="1.5" height="4.5"/>
					</g>
				</g>
			</g>
		</g>
		<g>
			<text transform="matrix(1 0 0 1 82.8678 220.1471)" class="st4 st5">5</text>
			<text transform="matrix(1 0 0 1 76.5196 220.1475)" class="st4 st5">4</text>
			<text transform="matrix(1 0 0 1 70.1845 220.1478)" class="st4 st5">3</text>
			<text transform="matrix(1 0 0 1 64.3192 220.1475)" class="st4 st5">2</text>
			<text transform="matrix(1 0 0 1 58.2045 220.1478)" class="st4 st5">1</text>
		</g>
	</g>
	<text transform="matrix(1 0 0 1 49.7764 258.9338)" class="st4 st8">Micro-A</text>
</g>
<g>
	<path class="st0" d="M221.2,142.3c0,0.9-0.2,1.8-0.4,2.6c0,0,0,0-2.8,2.5c-0.1,0-0.1,0.1-0.2,0.2l-0.1,0.1v6.1h-48v-6.1l0,0
		c-0.1-0.1-0.8-0.7-3.5-3.1c-0.1-0.9-0.1-1.6-0.1-2.3c0-1.2,0-2.2,0.2-3.5h54.5C221.1,140,221.3,141.2,221.2,142.3z"/>
	<path class="st1" d="M169.8,142.3h47.9l0.1,5.3c0.1,0,0.1-0.1,0.2-0.2c2.8-2.5,2.8-2.5,2.8-2.5c0.1-0.4,0.2-0.8,0.3-1.3
		c0-0.2,0.1-0.4,0.1-0.5s0-0.1,0-0.2c0-0.2,0-0.3,0-0.5v-0.1c0-1.1-0.1-2.3-0.4-3.5h-54.5c-0.2,1.3-0.3,2.3-0.2,3.5
		c0,0.7,0,1.4,0.1,2.3c3.5,3.1,3.5,3.1,3.5,3.1L169.8,142.3L169.8,142.3"/>
	<text transform="matrix(1 0 0 1 171.8936 137.1812)" class="st4 st5">5</text>
	<text transform="matrix(1 0 0 1 181.0935 137.1812)" class="st4 st5">4</text>
	<text transform="matrix(1 0 0 1 190.2936 137.1812)" class="st4 st5">3</text>
	<text transform="matrix(1 0 0 1 199.4935 137.1812)" class="st4 st5">2</text>
	<text transform="matrix(1 0 0 1 208.6942 137.1817)" class="st4 st5">1</text>
	<path class="st3" d="M217.7,153.8h-48c0,0,0,0,0.1-11.5h47.9L217.7,153.8L217.7,153.8z"/>
	<rect x="172.2" y="140.9" class="st7" width="6.1" height="2.9"/>
	<rect x="181.4" y="140.9" class="st7" width="6.1" height="2.9"/>
	<rect x="190.6" y="140.9" class="st7" width="6.1" height="2.9"/>
	<rect x="199.8" y="140.9" class="st7" width="6.1" height="2.9"/>
	<rect x="209" y="140.9" class="st7" width="6.1" height="2.9"/>
	<text transform="matrix(1 0 0 1 173.7957 176.1129)" class="st4 st8">Mini-B</text>
</g>
<g>
	<g>
		<g>
			<polygon class="st0" points="45.7,139 100.9,139 100.9,147.6 97.4,147.6 88.9,154.5 57.8,154.5 49.2,147.6 45.7,147.6 			"/>
			<polygon class="st3" points="97.4,142.4 97.4,147.6 88.9,154.5 57.8,154.5 49.2,147.6 49.2,142.4 			"/>
			<polygon class="st1" points="100.9,139 100.9,147.6 97.4,147.6 97.4,142.4 49.2,142.4 49.2,147.6 45.7,147.6 45.7,139 			"/>
			<g>
				<rect x="70.3" y="141.3" class="st7" width="6.1" height="2.9"/>
				<rect x="52" y="141.3" class="st7" width="6.1" height="2.9"/>
				<rect x="61.1" y="141.3" class="st7" width="6.1" height="2.9"/>
				<rect x="88.6" y="141.3" class="st7" width="6.1" height="2.9"/>
				<rect x="79.4" y="141.3" class="st7" width="6.1" height="2.9"/>
			</g>
		</g>
		<g>
			<text transform="matrix(1 0 0 1 51.7132 136.8751)" class="st4 st5">5</text>
			<text transform="matrix(1 0 0 1 60.8133 136.8749)" class="st4 st5">4</text>
			<text transform="matrix(1 0 0 1 69.8133 136.8749)" class="st4 st5">3</text>
			<text transform="matrix(1 0 0 1 79.0129 136.8749)" class="st4 st5">2</text>
			<text transform="matrix(1 0 0 1 88.313 136.8749)" class="st4 st5">1</text>
		</g>
	</g>
	<text transform="matrix(1 0 0 1 53.4793 176.1132)" class="st4 st8">Mini-A</text>
</g>
<g>
	<path class="st9" d="M215,30.7l-5.8-5.5c-0.7-0.7-2.1-1.2-3.1-1.2h-25.5c-1,0-2.4,0.6-3.1,1.2l-5.8,5.5c-0.7,0.7-1.3,2-1.3,3v3.8v6
		v16.2c0,1.9,1.7,3.5,3.7,3.5h38.6c2,0,3.7-1.6,3.7-3.5V43.6v-6v-3.9C216.3,32.7,215.6,31.3,215,30.7z"/>
	<path class="st1" d="M180.6,24c-1,0-2.4,0.5-3.1,1.2l-5.8,5.5c-0.7,0.7-1.3,2-1.3,2.9v3.9v6.1v16.2c0,1.9,1.7,3.5,3.7,3.5h38.6
		c2,0,3.7-1.6,3.7-3.5V43.6v-6.1v-3.9c0-1-0.6-2.3-1.3-3l-5.8-5.5c-0.7-0.7-2.1-1.2-3.1-1.2L180.6,24L180.6,24L180.6,24z
		 M176.5,32.6h33.6v22h-33.6V32.6L176.5,32.6z"/>
	<rect x="182.6" y="31.5" class="st7" width="5.7" height="2.2"/>
	<rect x="198.5" y="31.5" class="st7" width="5.7" height="2.2"/>
	<rect x="182.6" y="53.5" class="st7" width="5.7" height="2.2"/>
	<rect x="198.5" y="53.5" class="st7" width="5.7" height="2.2"/>
	<text transform="matrix(1 0 0 1 182.0885 74.9649)" class="st4 st5">4</text>
	<text transform="matrix(1 0 0 1 197.9885 74.9834)" class="st4 st5">3</text>
	<text transform="matrix(1 0 0 1 197.9885 21.9493)" class="st4 st5">2</text>
	<text transform="matrix(1 0 0 1 182.0885 21.9493)" class="st4 st5">1</text>
	<text transform="matrix(1 0 0 1 171.1996 92.789)" class="st4 st8">Type-B</text>
</g>
<g>
	<path class="st0" d="M25.9,35.2c0-1.4,1.1-2.5,2.5-2.5h90c1.4,0,2.5,1.1,2.5,2.5v25c0,0.7-0.3,1.3-0.7,1.7
		c-0.5,0.5-1.1,0.7-1.7,0.7H28.4c-0.7,0-1.3-0.3-1.7-0.7c-0.5-0.5-0.7-1.1-0.7-1.7L25.9,35.2L25.9,35.2z"/>
	<text transform="matrix(1 0 0 1 37.3858 74.5483)" class="st4 st5">4</text>
	<text transform="matrix(1 0 0 1 60.6859 74.5846)" class="st4 st5">3</text>
	<text transform="matrix(1 0 0 1 79.3858 74.4452)" class="st4 st5">2</text>
	<text transform="matrix(1 0 0 1 102.6859 74.4452)" class="st4 st5">1</text>
	<path class="st1" d="M120.9,60.1v-9.2h-95v9.3c0,0.6,0.2,1.2,0.7,1.7c0.4,0.4,1,0.7,1.7,0.7h90.1C119.8,62.6,120.9,61.5,120.9,60.1
		z"/>
	<path class="st3" d="M120.9,35.2v15.7h-95V35.1c0-0.6,0.2-1.2,0.7-1.7c0.4-0.4,1-0.7,1.7-0.7h90.1
		C119.8,32.7,120.9,33.8,120.9,35.2z"/>
	<rect x="101.4" y="49.2" class="st7" width="9.3" height="3.5"/>
	<rect x="78.1" y="49.2" class="st7" width="9.3" height="3.5"/>
	<rect x="59.4" y="49.2" class="st7" width="9.3" height="3.5"/>
	<rect x="36.1" y="49.2" class="st7" width="9.3" height="3.5"/>
	<text transform="matrix(1 0 0 1 51.0961 92.7889)" class="st4 st8">Type-A</text>
</g>
</svg>
